<?xml version="1.0" encoding="utf-8"?>
<!-- Generator: Adobe Illustrator 26.0.1, SVG Export Plug-In . SVG Version: 6.00 Build 0)  -->
<svg version="1.1" id="Layer_1" xmlns="http://www.w3.org/2000/svg" xmlns:xlink="http://www.w3.org/1999/xlink" x="0px" y="0px"
	 viewBox="0 0 1232 328" style="enable-background:new 0 0 1232 328;" xml:space="preserve">
<style type="text/css">
	.st0{fill:#FFFFFF;}
	.st1{fill:url(#SVGID_1_);}
	.st2{fill:none;stroke:#424050;stroke-width:2;stroke-linecap:round;}
	.st3{opacity:0.6;fill:none;stroke:#424050;stroke-width:2;stroke-linecap:round;enable-background:new    ;}
	.st4{opacity:0.4;fill:none;stroke:#424050;stroke-width:2;stroke-linecap:round;enable-background:new    ;}
	.st5{opacity:0.2;fill:none;stroke:#424050;stroke-width:2;stroke-linecap:round;enable-background:new    ;}
	.st6{fill:url(#SVGID_00000021833687216457518820000006854687819721717175_);}
	.st7{fill:none;stroke:#BFD9FF;stroke-width:2;stroke-linecap:round;}
	.st8{fill:none;stroke:#BFD9FF;stroke-width:2;stroke-linecap:round;stroke-linejoin:round;}
	.st9{fill:none;stroke:#BFD9FF;}
	.st10{fill:url(#SVGID_00000131337743873053882920000014941703334811117998_);}
	.st11{fill:url(#SVGID_00000149369803568455121040000017734658830672752264_);}
	.st12{fill:#FFE68E;}
	.st13{fill:none;stroke:#FFE68E;stroke-width:2;stroke-linecap:round;}
	.st14{fill:none;stroke:#FFE68E;}
	.st15{fill:url(#SVGID_00000091001724246775474860000002896965274084986787_);}
	.st16{fill:url(#SVGID_00000032629979613094972880000016765686631148971421_);}
	.st17{fill:none;stroke:#98D597;stroke-width:2;stroke-linecap:round;stroke-linejoin:round;}
	.st18{fill:none;stroke:#98D597;stroke-width:2;}
	.st19{fill:none;stroke:#92EBC4;}
	.st20{opacity:0.5;}
	.st21{fill:url(#SVGID_00000002354306939270796550000005465257042349858982_);}
	.st22{opacity:0.3;}
	.st23{fill:url(#SVGID_00000023999528332374198340000017786504098794814852_);}
	.st24{opacity:0.1;}
	.st25{fill:url(#SVGID_00000075873656057256573850000002072027578834938028_);}
	.st26{opacity:0.75;}
	.st27{fill:#131218;}
	.st28{fill:#EDEFF8;}
	.st29{fill:#ACACC0;}
	.st30{fill:#76768D;}
	.st31{fill:url(#SVGID_00000008830135944023696420000005331184672918376341_);}
	.st32{fill:#92EBC4;}
	.st33{fill:url(#SVGID_00000122706735258477026170000009844562091965860498_);}
	.st34{fill:url(#SVGID_00000075162192077230859280000015147884877947118782_);}
</style>
<g>
	<rect x="24.8" y="136.8" class="st0" width="31.6" height="31.6"/>
	
		<linearGradient id="SVGID_1_" gradientUnits="userSpaceOnUse" x1="40" y1="202" x2="40" y2="154" gradientTransform="matrix(1 0 0 -1 0 330)">
		<stop  offset="0" style="stop-color:#FF958C"/>
		<stop  offset="1" style="stop-color:#EB6462"/>
	</linearGradient>
	<path class="st1" d="M46.6,148.8v-1.6c-0.5,0-0.9-0.5-0.9-1v-1.3c0-3.1-2-4.8-5.7-4.8c-4.7,0-5.7,2.6-5.7,4.8v1.3
		c0,0.5-0.4,0.9-0.9,1v1.6c0.4,0,0.7,0.3,0.8,0.6c0.4,1,1.4,3.7,2.1,4.7l0.1,0.1c0.5,0.7,1.1,1.7,3.6,1.7c2.5,0,3.1-0.9,3.6-1.7
		l0.1-0.1c0.7-1,1.8-3.7,2.1-4.7C45.9,149.1,46.2,148.8,46.6,148.8z M62.8,139.8c-1-5.4-5.3-9.6-10.6-10.6C48.1,128.4,44,128,40,128
		c-4.1,0-8.2,0.4-12.3,1.2c-5.4,1-9.6,5.2-10.6,10.6c-1.5,8.1-1.5,16.4,0,24.4c1,5.5,5.2,9.6,10.6,10.6c4.1,0.9,8.2,1.2,12.3,1.2
		c4.1,0,8.2-0.4,12.2-1.2c5.4-1.1,9.6-5.2,10.6-10.6C64.4,156.1,64.4,147.8,62.8,139.8z M34.7,159.7c-2.1,0-5.9,1.3-6.2,2.8
		l-0.4,2.6c-0.1,0.5-0.5,0.8-1,0.8c-0.1,0-0.1,0-0.2,0c-0.5-0.1-0.9-0.6-0.8-1.1l0.4-2.7c0.6-3.1,6-4.4,8.1-4.4c0.5,0,1,0.4,1,1
		C35.6,159.2,35.2,159.7,34.7,159.7z M40,157.9c-3.5,0-4.6-1.7-5.2-2.6l-0.1-0.1c-0.7-1.1-1.7-3.6-2.1-4.6c-0.7-0.3-1.1-1-1.1-1.7
		v-1.8c0-0.7,0.4-1.2,0.9-1.6v-0.6c0-4.2,2.9-6.8,7.7-6.8s7.7,2.5,7.7,6.8v0.6c0.5,0.3,0.9,0.9,0.9,1.6v1.8c0,0.8-0.5,1.4-1.1,1.7
		c-0.4,1-1.4,3.5-2.1,4.6l-0.1,0.1C44.6,156.2,43.5,157.9,40,157.9z M53.1,165.9c-0.1,0-0.1,0-0.2,0c-0.5,0-0.9-0.3-1-0.8l-0.4-2.7
		c-0.3-1.4-3.6-2.7-6.1-2.7c-0.5,0-1-0.4-1-1c0-0.5,0.4-1,1-1c3,0,7.5,1.5,8.1,4.3l0.5,2.7C54,165.3,53.6,165.8,53.1,165.9z"/>
</g>
<path class="st2" d="M80,152h60"/>
<path class="st2" d="M221,152h60"/>
<path class="st2" d="M362,152h60"/>
<path class="st2" d="M503,152h60"/>
<path class="st2" d="M644,152h60"/>
<path class="st3" d="M785,152h60"/>
<path class="st4" d="M926,152h60"/>
<path class="st5" d="M1067,152h60"/>
<g>
	
		<linearGradient id="SVGID_00000154385762118513367960000013830656002331323822_" gradientUnits="userSpaceOnUse" x1="162.2003" y1="177.1557" x2="199.5473" y2="178.8788" gradientTransform="matrix(1 0 0 -1 0 330)">
		<stop  offset="0" style="stop-color:#24222C"/>
		<stop  offset="1" style="stop-color:#32303B"/>
	</linearGradient>
	<path style="fill:url(#SVGID_00000154385762118513367960000013830656002331323822_);" d="M168,128h25c6.6,0,12,5.4,12,12v24
		c0,6.6-5.4,12-12,12h-25c-6.6,0-12-5.4-12-12v-24C156,133.4,161.4,128,168,128z"/>
	<path class="st7" d="M181,152h-4"/>
	<path class="st7" d="M173,152h-4"/>
	<path class="st8" d="M193,152h-8 M193,152l-4.5-5 M193,152l-4.5,4.5"/>
	<path class="st9" d="M168,128.5h25c6.4,0,11.5,5.1,11.5,11.5v24c0,6.4-5.1,11.5-11.5,11.5h-25c-6.4,0-11.5-5.1-11.5-11.5v-24
		C156.5,133.6,161.6,128.5,168,128.5z"/>
</g>
<g>
	
		<linearGradient id="SVGID_00000036223835077122714630000002821697190634425740_" gradientUnits="userSpaceOnUse" x1="303.2003" y1="177.1557" x2="340.5472" y2="178.8788" gradientTransform="matrix(1 0 0 -1 0 330)">
		<stop  offset="0" style="stop-color:#24222C"/>
		<stop  offset="1" style="stop-color:#32303B"/>
	</linearGradient>
	<path style="fill:url(#SVGID_00000036223835077122714630000002821697190634425740_);" d="M309,128h25c6.6,0,12,5.4,12,12v24
		c0,6.6-5.4,12-12,12h-25c-6.6,0-12-5.4-12-12v-24C297,133.4,302.4,128,309,128z"/>
	<path class="st7" d="M322,152h-4"/>
	<path class="st7" d="M314,152h-4"/>
	<path class="st8" d="M334,152h-8 M334,152l-4.5-5 M334,152l-4.5,4.5"/>
	<path class="st9" d="M309,128.5h25c6.4,0,11.5,5.1,11.5,11.5v24c0,6.4-5.1,11.5-11.5,11.5h-25c-6.4,0-11.5-5.1-11.5-11.5v-24
		C297.5,133.6,302.6,128.5,309,128.5z"/>
</g>
<g>
	
		<linearGradient id="SVGID_00000002374079185399530720000005787497144069643683_" gradientUnits="userSpaceOnUse" x1="444.2003" y1="177.1557" x2="481.5472" y2="178.8788" gradientTransform="matrix(1 0 0 -1 0 330)">
		<stop  offset="0" style="stop-color:#24222C"/>
		<stop  offset="1" style="stop-color:#32303B"/>
	</linearGradient>
	<path style="fill:url(#SVGID_00000002374079185399530720000005787497144069643683_);" d="M450,128h25c6.6,0,12,5.4,12,12v24
		c0,6.6-5.4,12-12,12h-25c-6.6,0-12-5.4-12-12v-24C438,133.4,443.4,128,450,128z"/>
	<path class="st12" d="M463.4,150.6c-1.6-0.8-3.4,0.7-2.8,2.4l3.2,9.8c0.6,1.8,3.1,1.8,3.8,0.1l0.7-2c0.2-0.6,0.7-1.1,1.4-1.3
		l2.2-0.6c1.8-0.5,2.1-2.8,0.4-3.7L463.4,150.6z"/>
	<path class="st13" d="M457,146l-3.5-3.5"/>
	<path class="st13" d="M456.5,149.5H452"/>
	<path class="st13" d="M460.5,141v4.5"/>
	<path class="st14" d="M450,128.5h25c6.4,0,11.5,5.1,11.5,11.5v24c0,6.4-5.1,11.5-11.5,11.5h-25c-6.4,0-11.5-5.1-11.5-11.5v-24
		C438.5,133.6,443.6,128.5,450,128.5z"/>
</g>
<g>
	
		<linearGradient id="SVGID_00000088126411707506497990000004267787990169445258_" gradientUnits="userSpaceOnUse" x1="585.2003" y1="177.1557" x2="622.5473" y2="178.8788" gradientTransform="matrix(1 0 0 -1 0 330)">
		<stop  offset="0" style="stop-color:#24222C"/>
		<stop  offset="1" style="stop-color:#32303B"/>
	</linearGradient>
	<path style="fill:url(#SVGID_00000088126411707506497990000004267787990169445258_);" d="M591,128h25c6.6,0,12,5.4,12,12v24
		c0,6.6-5.4,12-12,12h-25c-6.6,0-12-5.4-12-12v-24C579,133.4,584.4,128,591,128z"/>
	<path class="st7" d="M604,152h-4"/>
	<path class="st7" d="M596,152h-4"/>
	<path class="st8" d="M616,152h-8 M616,152l-4.5-5 M616,152l-4.5,4.5"/>
	<path class="st9" d="M591,128.5h25c6.4,0,11.5,5.1,11.5,11.5v24c0,6.4-5.1,11.5-11.5,11.5h-25c-6.4,0-11.5-5.1-11.5-11.5v-24
		C579.5,133.6,584.6,128.5,591,128.5z"/>
</g>
<g>
	
		<linearGradient id="SVGID_00000083792574561984912820000011633501087786394804_" gradientUnits="userSpaceOnUse" x1="726.2003" y1="177.1557" x2="763.5473" y2="178.8788" gradientTransform="matrix(1 0 0 -1 0 330)">
		<stop  offset="0" style="stop-color:#24222C"/>
		<stop  offset="1" style="stop-color:#32303B"/>
	</linearGradient>
	<path style="fill:url(#SVGID_00000083792574561984912820000011633501087786394804_);" d="M732,128h25c6.6,0,12,5.4,12,12v24
		c0,6.6-5.4,12-12,12h-25c-6.6,0-12-5.4-12-12v-24C720,133.4,725.4,128,732,128z"/>
	<path class="st17" d="M745,145.6v12.8 M747.9,147.9h-4.4c-0.5,0-1.1,0.2-1.4,0.6s-0.6,0.9-0.6,1.4c0,0.5,0.2,1.1,0.6,1.4
		c0.4,0.4,0.9,0.6,1.4,0.6h2.9c0.5,0,1.1,0.2,1.4,0.6c0.4,0.4,0.6,0.9,0.6,1.4c0,0.5-0.2,1.1-0.6,1.4c-0.4,0.4-0.9,0.6-1.4,0.6h-5"
		/>
	<path class="st18" d="M740,142h10c2.8,0,5,2.2,5,5v10c0,2.8-2.2,5-5,5h-10c-2.8,0-5-2.2-5-5v-10C735,144.2,737.2,142,740,142z"/>
	<path class="st19" d="M732,128.5h25c6.4,0,11.5,5.1,11.5,11.5v24c0,6.4-5.1,11.5-11.5,11.5h-25c-6.4,0-11.5-5.1-11.5-11.5v-24
		C720.5,133.6,725.6,128.5,732,128.5z"/>
</g>
<g class="st20">
	
		<linearGradient id="SVGID_00000152255929828008288610000012234234789775437191_" gradientUnits="userSpaceOnUse" x1="867.2003" y1="177.1557" x2="904.5473" y2="178.8788" gradientTransform="matrix(1 0 0 -1 0 330)">
		<stop  offset="0" style="stop-color:#24222C"/>
		<stop  offset="1" style="stop-color:#32303B"/>
	</linearGradient>
	<path style="fill:url(#SVGID_00000152255929828008288610000012234234789775437191_);" d="M873,128h25c6.6,0,12,5.4,12,12v24
		c0,6.6-5.4,12-12,12h-25c-6.6,0-12-5.4-12-12v-24C861,133.4,866.4,128,873,128z"/>
	<path class="st7" d="M886,152h-4"/>
	<path class="st7" d="M878,152h-4"/>
	<path class="st8" d="M898,152h-8 M898,152l-4.5-5 M898,152l-4.5,4.5"/>
	<path class="st9" d="M873,128.5h25c6.4,0,11.5,5.1,11.5,11.5v24c0,6.4-5.1,11.5-11.5,11.5h-25c-6.4,0-11.5-5.1-11.5-11.5v-24
		C861.5,133.6,866.6,128.5,873,128.5z"/>
</g>
<g class="st22">
	
		<linearGradient id="SVGID_00000161628418276279846620000015013412130577526455_" gradientUnits="userSpaceOnUse" x1="1008.2023" y1="177.1559" x2="1045.5522" y2="178.8789" gradientTransform="matrix(1 0 0 -1 0 330)">
		<stop  offset="0" style="stop-color:#24222C"/>
		<stop  offset="1" style="stop-color:#32303B"/>
	</linearGradient>
	<path style="fill:url(#SVGID_00000161628418276279846620000015013412130577526455_);" d="M1014,128h25c6.6,0,12,5.4,12,12v24
		c0,6.6-5.4,12-12,12h-25c-6.6,0-12-5.4-12-12v-24C1002,133.4,1007.4,128,1014,128z"/>
	<path class="st7" d="M1027,152h-4"/>
	<path class="st7" d="M1019,152h-4"/>
	<path class="st8" d="M1039,152h-8 M1039,152l-4.5-5 M1039,152l-4.5,4.5"/>
	<path class="st9" d="M1014,128.5h25c6.4,0,11.5,5.1,11.5,11.5v24c0,6.4-5.1,11.5-11.5,11.5h-25c-6.4,0-11.5-5.1-11.5-11.5v-24
		C1002.5,133.6,1007.6,128.5,1014,128.5z"/>
</g>
<g class="st24">
	
		<linearGradient id="SVGID_00000001663762586493961400000002466660180624763545_" gradientUnits="userSpaceOnUse" x1="1149.2023" y1="177.1559" x2="1186.5522" y2="178.8789" gradientTransform="matrix(1 0 0 -1 0 330)">
		<stop  offset="0" style="stop-color:#24222C"/>
		<stop  offset="1" style="stop-color:#32303B"/>
	</linearGradient>
	<path style="fill:url(#SVGID_00000001663762586493961400000002466660180624763545_);" d="M1155,128h25c6.6,0,12,5.4,12,12v24
		c0,6.6-5.4,12-12,12h-25c-6.6,0-12-5.4-12-12v-24C1143,133.4,1148.4,128,1155,128z"/>
	<path class="st7" d="M1168,152h-4"/>
	<path class="st7" d="M1160,152h-4"/>
	<path class="st8" d="M1180,152h-8 M1180,152l-4.5-5 M1180,152l-4.5,4.5"/>
	<path class="st9" d="M1155,128.5h25c6.4,0,11.5,5.1,11.5,11.5v24c0,6.4-5.1,11.5-11.5,11.5h-25c-6.4,0-11.5-5.1-11.5-11.5v-24
		C1143.5,133.6,1148.6,128.5,1155,128.5z"/>
</g>
<g class="st26">
	<path class="st27" d="M89,208h264c4.4,0,8,3.6,8,8v80c0,4.4-3.6,8-8,8H89c-4.4,0-8-3.6-8-8v-80C81,211.6,84.6,208,89,208z"/>
	<path class="st28" d="M104.6,277.2c-1.4,0-2.6-0.2-3.6-0.7c-1-0.5-1.7-1.3-2.2-2.3c-0.5-1.1-0.8-2.4-0.8-4c0-2.4,0.6-4.2,1.7-5.3
		c1.2-1.2,2.8-1.8,4.9-1.8c1.1,0,2.2,0.2,3.1,0.6c0.9,0.4,1.6,1,2.2,1.7c0.5,0.8,0.8,1.7,0.8,2.9h-2.3c0-0.7-0.2-1.3-0.5-1.8
		s-0.7-0.9-1.3-1.1c-0.6-0.3-1.2-0.4-2-0.4c-0.9,0-1.7,0.2-2.4,0.6c-0.6,0.4-1.1,0.9-1.5,1.6c-0.3,0.7-0.5,1.7-0.5,2.8v0.4
		c0,1.1,0.2,2.1,0.5,2.8c0.3,0.7,0.8,1.3,1.5,1.6c0.6,0.3,1.4,0.5,2.4,0.5c0.8,0,1.4-0.1,2-0.4c0.6-0.3,1-0.6,1.3-1.1
		c0.3-0.5,0.5-1.1,0.5-1.8h2.2c0,1.2-0.3,2.2-0.8,2.9c-0.5,0.8-1.2,1.3-2.2,1.7C106.8,277.1,105.7,277.2,104.6,277.2z M112.8,277
		v-14.5h2.1V277H112.8z M117.6,264.7v-2.1h2.1v2.1H117.6z M117.6,277v-10.5h2.1V277H117.6z M126.5,277.2c-1.1,0-1.9-0.2-2.6-0.6
		c-0.7-0.4-1.2-1-1.6-1.8c-0.3-0.8-0.5-1.8-0.5-3.1c0-1.3,0.2-2.3,0.5-3.1c0.4-0.8,0.9-1.4,1.6-1.8c0.7-0.4,1.6-0.6,2.6-0.6
		c0.7,0,1.3,0.1,1.9,0.3c0.5,0.2,1,0.4,1.4,0.8c0.4,0.3,0.6,0.8,0.8,1.3c0.2,0.5,0.3,1.1,0.3,1.8h-2.1c0-0.6-0.1-1-0.2-1.4
		c-0.2-0.4-0.4-0.6-0.7-0.8c-0.3-0.2-0.8-0.3-1.3-0.3c-0.6,0-1,0.1-1.4,0.4c-0.4,0.3-0.7,0.6-0.9,1.2c-0.2,0.5-0.3,1.2-0.3,2.1v0.3
		c0,0.8,0.1,1.5,0.3,2c0.2,0.5,0.5,0.9,0.9,1.2c0.4,0.3,0.9,0.4,1.5,0.4c0.5,0,1-0.1,1.3-0.3c0.3-0.2,0.6-0.5,0.7-0.8
		c0.2-0.4,0.3-0.8,0.3-1.3h2c0,0.6-0.1,1.2-0.3,1.7c-0.2,0.5-0.4,0.9-0.8,1.3c-0.4,0.4-0.8,0.6-1.4,0.8
		C127.9,277.1,127.3,277.2,126.5,277.2z M133,277v-14.5h2.1v8.7l4.1-4.8h2.5l-3.6,4.1l3.8,6.4h-2.4l-2.7-4.9l-1.7,1.7v3.2H133z
		 M147.3,277.2c-1.1,0-2-0.2-2.7-0.6c-0.7-0.4-1.3-1-1.6-1.8c-0.4-0.8-0.6-1.8-0.6-3.1c0-1.3,0.2-2.3,0.6-3.1
		c0.4-0.8,0.9-1.4,1.7-1.8c0.7-0.4,1.6-0.6,2.7-0.6c1,0,1.8,0.2,2.5,0.6c0.7,0.4,1.2,0.9,1.5,1.7c0.3,0.8,0.5,1.7,0.5,2.9v0.8h-7.4
		c0,0.7,0.1,1.4,0.3,1.9c0.2,0.5,0.5,0.9,0.9,1.1c0.4,0.2,0.9,0.3,1.6,0.3c0.4,0,0.7,0,1-0.1c0.3-0.1,0.6-0.3,0.8-0.4
		c0.2-0.2,0.4-0.4,0.5-0.7c0.1-0.3,0.2-0.6,0.2-0.9h2c0,0.6-0.1,1.2-0.3,1.7c-0.2,0.5-0.5,0.9-0.9,1.2c-0.4,0.3-0.9,0.6-1.4,0.7
		C148.6,277.2,147.9,277.2,147.3,277.2z M144.5,270.7h5.2c0-0.5-0.1-1-0.2-1.3c-0.1-0.4-0.3-0.7-0.5-0.9c-0.2-0.2-0.5-0.4-0.8-0.5
		c-0.3-0.1-0.6-0.2-1-0.2c-0.6,0-1,0.1-1.4,0.3c-0.4,0.2-0.7,0.5-0.9,0.9C144.7,269.6,144.6,270.1,144.5,270.7z M157.6,277.2
		c-0.9,0-1.6-0.2-2.2-0.6s-1.1-1-1.5-1.8c-0.3-0.8-0.5-1.9-0.5-3.2c0-1.3,0.2-2.3,0.5-3.1c0.3-0.8,0.8-1.4,1.4-1.8
		c0.6-0.4,1.3-0.6,2.1-0.6c0.5,0,0.9,0.1,1.3,0.2c0.4,0.1,0.8,0.3,1.1,0.5c0.3,0.2,0.6,0.5,0.8,0.9h0.1v-5.2h2.1V277h-1.7l-0.2-1.4
		h-0.1c-0.3,0.6-0.8,1-1.4,1.3C158.9,277.1,158.3,277.2,157.6,277.2z M158.2,275.4c0.6,0,1.1-0.1,1.5-0.4c0.4-0.3,0.7-0.7,0.9-1.2
		c0.2-0.5,0.3-1.2,0.3-1.9v-0.3c0-0.6-0.1-1.2-0.2-1.6c-0.1-0.5-0.3-0.8-0.5-1.1c-0.2-0.3-0.5-0.5-0.8-0.6c-0.3-0.1-0.7-0.2-1.1-0.2
		c-0.6,0-1.1,0.1-1.5,0.4c-0.4,0.2-0.7,0.6-0.9,1.1c-0.2,0.5-0.3,1.2-0.3,2v0.4c0,0.8,0.1,1.5,0.3,2c0.2,0.5,0.5,0.9,0.8,1.1
		C157.1,275.3,157.6,275.4,158.2,275.4z M174.1,277.2c-1.1,0-2-0.2-2.8-0.6c-0.7-0.4-1.3-1-1.7-1.8c-0.4-0.8-0.6-1.8-0.6-3.1
		c0-1.3,0.2-2.3,0.6-3.1c0.4-0.8,1-1.4,1.7-1.8c0.8-0.4,1.7-0.6,2.8-0.6c1.1,0,2.1,0.2,2.8,0.6c0.7,0.4,1.3,1,1.7,1.8
		c0.4,0.8,0.6,1.8,0.6,3.1c0,1.3-0.2,2.3-0.6,3.1c-0.4,0.8-0.9,1.4-1.7,1.8C176.2,277,175.2,277.2,174.1,277.2z M174.1,275.5
		c0.7,0,1.2-0.1,1.6-0.4c0.4-0.3,0.7-0.7,0.9-1.2c0.2-0.5,0.3-1.2,0.3-2v-0.4c0-0.8-0.1-1.5-0.3-2c-0.2-0.5-0.5-0.9-0.9-1.2
		c-0.4-0.3-1-0.4-1.6-0.4c-0.7,0-1.2,0.1-1.6,0.4c-0.4,0.3-0.7,0.6-1,1.2c-0.2,0.5-0.3,1.2-0.3,2v0.4c0,0.8,0.1,1.5,0.3,2
		c0.2,0.5,0.5,0.9,1,1.2C172.9,275.4,173.5,275.5,174.1,275.5z M181.3,277v-10.5h1.7l0.2,1.5h0.1c0.3-0.4,0.6-0.7,0.9-1
		c0.3-0.3,0.7-0.4,1.1-0.6c0.4-0.1,0.9-0.2,1.4-0.2c0.7,0,1.3,0.1,1.8,0.4c0.5,0.2,0.9,0.6,1.2,1.1c0.3,0.5,0.4,1.2,0.4,2.1v7.2
		h-2.1v-6.9c0-0.4-0.1-0.7-0.2-1c-0.1-0.3-0.2-0.5-0.4-0.6c-0.2-0.2-0.4-0.3-0.7-0.3c-0.3-0.1-0.5-0.1-0.8-0.1
		c-0.5,0-0.9,0.1-1.3,0.4c-0.4,0.2-0.7,0.5-0.9,1c-0.2,0.4-0.4,0.9-0.4,1.5v6.2H181.3z M203.4,277.2c-2.2,0-3.8-0.6-5-1.7
		c-1.2-1.1-1.7-2.9-1.7-5.4c0-1.6,0.3-2.9,0.8-4c0.5-1.1,1.3-1.8,2.4-2.4c1-0.5,2.3-0.8,3.8-0.8c0.9,0,1.7,0.1,2.5,0.3
		c0.8,0.2,1.4,0.5,2,0.9c0.6,0.4,1,0.9,1.3,1.5c0.3,0.6,0.5,1.3,0.5,2.2h-2.3c0-0.5-0.1-1-0.3-1.3c-0.2-0.4-0.5-0.7-0.9-1
		c-0.4-0.3-0.8-0.4-1.3-0.5c-0.5-0.1-1-0.2-1.5-0.2c-0.8,0-1.4,0.1-2,0.3c-0.6,0.2-1.1,0.5-1.5,0.9c-0.4,0.4-0.7,0.9-0.9,1.6
		c-0.2,0.6-0.3,1.4-0.3,2.2v0.4c0,1.2,0.2,2.1,0.5,2.9c0.3,0.7,0.9,1.3,1.5,1.6c0.7,0.3,1.5,0.5,2.5,0.5c0.9,0,1.7-0.1,2.3-0.4
		s1.1-0.7,1.4-1.2c0.3-0.5,0.5-1.2,0.5-2v-0.2h-4.6v-1.9h6.9v7.3h-1.6l-0.2-1.6c-0.4,0.4-0.8,0.8-1.3,1.1c-0.5,0.3-1,0.5-1.6,0.6
		C204.7,277.2,204.1,277.2,203.4,277.2z M217.3,277.2c-1.1,0-2-0.2-2.8-0.6c-0.7-0.4-1.3-1-1.7-1.8c-0.4-0.8-0.6-1.8-0.6-3.1
		c0-1.3,0.2-2.3,0.6-3.1c0.4-0.8,1-1.4,1.7-1.8c0.8-0.4,1.7-0.6,2.8-0.6c1.1,0,2.1,0.2,2.8,0.6c0.7,0.4,1.3,1,1.7,1.8
		c0.4,0.8,0.6,1.8,0.6,3.1c0,1.3-0.2,2.3-0.6,3.1c-0.4,0.8-0.9,1.4-1.7,1.8C219.3,277,218.4,277.2,217.3,277.2z M217.3,275.5
		c0.7,0,1.2-0.1,1.6-0.4c0.4-0.3,0.7-0.7,0.9-1.2c0.2-0.5,0.3-1.2,0.3-2v-0.4c0-0.8-0.1-1.5-0.3-2c-0.2-0.5-0.5-0.9-0.9-1.2
		c-0.4-0.3-1-0.4-1.6-0.4c-0.7,0-1.2,0.1-1.6,0.4c-0.4,0.3-0.7,0.6-1,1.2c-0.2,0.5-0.3,1.2-0.3,2v0.4c0,0.8,0.1,1.5,0.3,2
		c0.2,0.5,0.5,0.9,1,1.2C216.1,275.4,216.6,275.5,217.3,275.5z M228.9,277.2c-1.1,0-2-0.2-2.8-0.6c-0.7-0.4-1.3-1-1.7-1.8
		c-0.4-0.8-0.6-1.8-0.6-3.1c0-1.3,0.2-2.3,0.6-3.1c0.4-0.8,1-1.4,1.7-1.8c0.8-0.4,1.7-0.6,2.8-0.6c1.1,0,2.1,0.2,2.8,0.6
		c0.7,0.4,1.3,1,1.7,1.8c0.4,0.8,0.6,1.8,0.6,3.1c0,1.3-0.2,2.3-0.6,3.1c-0.4,0.8-0.9,1.4-1.7,1.8C231,277,230,277.2,228.9,277.2z
		 M228.9,275.5c0.7,0,1.2-0.1,1.6-0.4c0.4-0.3,0.7-0.7,0.9-1.2c0.2-0.5,0.3-1.2,0.3-2v-0.4c0-0.8-0.1-1.5-0.3-2
		c-0.2-0.5-0.5-0.9-0.9-1.2c-0.4-0.3-1-0.4-1.6-0.4c-0.7,0-1.2,0.1-1.6,0.4c-0.4,0.3-0.7,0.6-1,1.2c-0.2,0.5-0.3,1.2-0.3,2v0.4
		c0,0.8,0.1,1.5,0.3,2c0.2,0.5,0.5,0.9,1,1.2C227.7,275.4,228.3,275.5,228.9,275.5z M237.9,280.6c-0.5,0-0.9-0.1-1.4-0.3
		c-0.4-0.2-0.7-0.5-1-0.9c-0.3-0.4-0.4-0.8-0.4-1.4c0-0.6,0.2-1.1,0.5-1.4c0.3-0.4,0.7-0.7,1.2-0.8c-0.3-0.1-0.6-0.4-0.8-0.6
		c-0.2-0.3-0.3-0.6-0.3-1c0-0.5,0.2-0.9,0.5-1.2s0.8-0.5,1.3-0.6c-0.5-0.3-0.8-0.7-1.1-1.2c-0.3-0.5-0.4-1-0.4-1.6
		c0-0.7,0.2-1.3,0.5-1.8c0.3-0.5,0.8-0.9,1.5-1.2c0.7-0.3,1.5-0.4,2.4-0.4c0.4,0,0.8,0,1.2,0.1c0.4,0.1,0.7,0.1,1,0.2
		c0.5-0.2,0.8-0.5,1-0.9c0.2-0.3,0.3-0.7,0.4-1h2c0,0.4-0.1,0.8-0.3,1.2c-0.2,0.3-0.4,0.6-0.7,0.9c-0.3,0.2-0.7,0.4-1.1,0.5
		c0.3,0.3,0.6,0.7,0.7,1.1c0.2,0.4,0.3,0.8,0.3,1.3c0,0.7-0.2,1.3-0.5,1.8c-0.3,0.5-0.8,0.9-1.5,1.2c-0.6,0.3-1.4,0.4-2.4,0.4h-1.6
		c-0.3,0-0.6,0.1-0.8,0.2c-0.2,0.1-0.3,0.3-0.3,0.6c0,0.2,0.1,0.4,0.3,0.6c0.2,0.1,0.4,0.2,0.7,0.2h4.4c0.8,0,1.4,0.3,1.9,0.8
		c0.5,0.5,0.8,1.2,0.8,2c0,0.6-0.2,1.1-0.5,1.6c-0.3,0.5-0.7,0.9-1.3,1.1c-0.5,0.3-1.2,0.4-1.9,0.4H237.9z M238.5,279.1h3.8
		c0.3,0,0.5-0.1,0.8-0.2s0.4-0.3,0.5-0.5c0.1-0.2,0.2-0.4,0.2-0.6c0-0.4-0.1-0.7-0.4-0.9c-0.2-0.2-0.5-0.3-0.9-0.3h-4
		c-0.4,0-0.7,0.1-0.9,0.4c-0.3,0.2-0.4,0.5-0.4,0.9c0,0.4,0.1,0.7,0.4,0.9C237.8,279,238.1,279.1,238.5,279.1z M240.4,271.7
		c0.8,0,1.4-0.2,1.8-0.5c0.4-0.4,0.6-0.8,0.6-1.5c0-0.6-0.2-1.1-0.6-1.4c-0.4-0.3-1-0.5-1.8-0.5c-0.8,0-1.4,0.2-1.8,0.5
		c-0.4,0.3-0.6,0.8-0.6,1.4c0,0.4,0.1,0.8,0.2,1.1c0.2,0.3,0.4,0.5,0.8,0.7C239.5,271.6,239.9,271.7,240.4,271.7z M247.6,277v-14.5
		h2.1V277H247.6z M256.7,277.2c-1.1,0-2-0.2-2.7-0.6c-0.7-0.4-1.3-1-1.6-1.8c-0.4-0.8-0.6-1.8-0.6-3.1c0-1.3,0.2-2.3,0.6-3.1
		c0.4-0.8,0.9-1.4,1.7-1.8c0.7-0.4,1.6-0.6,2.7-0.6c1,0,1.8,0.2,2.5,0.6c0.7,0.4,1.2,0.9,1.5,1.7c0.3,0.8,0.5,1.7,0.5,2.9v0.8h-7.4
		c0,0.7,0.1,1.4,0.3,1.9c0.2,0.5,0.5,0.9,0.9,1.1c0.4,0.2,0.9,0.3,1.6,0.3c0.4,0,0.7,0,1-0.1c0.3-0.1,0.6-0.3,0.8-0.4
		c0.2-0.2,0.4-0.4,0.5-0.7c0.1-0.3,0.2-0.6,0.2-0.9h2c0,0.6-0.1,1.2-0.3,1.7c-0.2,0.5-0.5,0.9-0.9,1.2c-0.4,0.3-0.9,0.6-1.4,0.7
		S257.4,277.2,256.7,277.2z M253.9,270.7h5.2c0-0.5-0.1-1-0.2-1.3c-0.1-0.4-0.3-0.7-0.5-0.9c-0.2-0.2-0.5-0.4-0.8-0.5
		c-0.3-0.1-0.6-0.2-1-0.2c-0.6,0-1,0.1-1.4,0.3c-0.4,0.2-0.7,0.5-0.9,0.9C254.1,269.6,254,270.1,253.9,270.7z M266.3,277l5.4-13.7
		h2.9l5.4,13.7h-2.4l-1.2-3.2h-6.5l-1.2,3.2H266.3z M270.5,271.9h5l-1.5-4c0-0.1-0.1-0.3-0.2-0.5c-0.1-0.2-0.2-0.4-0.3-0.7
		c-0.1-0.3-0.2-0.5-0.3-0.8c-0.1-0.3-0.2-0.5-0.2-0.7H273c-0.1,0.3-0.2,0.6-0.3,0.9c-0.1,0.3-0.2,0.7-0.4,1
		c-0.1,0.3-0.2,0.6-0.3,0.8L270.5,271.9z M285,277.2c-0.9,0-1.6-0.2-2.2-0.6c-0.6-0.4-1.1-1-1.5-1.8c-0.3-0.8-0.5-1.9-0.5-3.2
		c0-1.3,0.2-2.3,0.5-3.1c0.3-0.8,0.8-1.4,1.4-1.8c0.6-0.4,1.3-0.6,2.1-0.6c0.5,0,0.9,0.1,1.3,0.2c0.4,0.1,0.8,0.3,1.1,0.5
		c0.3,0.2,0.6,0.5,0.8,0.9h0.1v-5.2h2.1V277h-1.7l-0.2-1.4h-0.1c-0.3,0.6-0.8,1-1.4,1.3C286.3,277.1,285.7,277.2,285,277.2z
		 M285.6,275.4c0.6,0,1.1-0.1,1.5-0.4c0.4-0.3,0.7-0.7,0.9-1.2c0.2-0.5,0.3-1.2,0.3-1.9v-0.3c0-0.6-0.1-1.2-0.2-1.6
		s-0.3-0.8-0.5-1.1c-0.2-0.3-0.5-0.5-0.8-0.6s-0.7-0.2-1.1-0.2c-0.6,0-1.1,0.1-1.5,0.4c-0.4,0.2-0.7,0.6-0.9,1.1
		c-0.2,0.5-0.3,1.2-0.3,2v0.4c0,0.8,0.1,1.5,0.3,2c0.2,0.5,0.5,0.9,0.8,1.1C284.5,275.3,285,275.4,285.6,275.4z M296.9,277.2
		c-0.7,0-1.4-0.1-1.9-0.2s-1-0.4-1.4-0.7c-0.4-0.3-0.7-0.6-0.9-1c-0.2-0.4-0.3-0.8-0.3-1.3c0-0.1,0-0.1,0-0.2c0-0.1,0-0.1,0-0.1h2.1
		c0,0,0,0.1,0,0.1c0,0,0,0.1,0,0.1c0,0.4,0.1,0.7,0.3,1c0.2,0.2,0.5,0.4,0.9,0.5c0.4,0.1,0.8,0.1,1.3,0.1c0.4,0,0.8,0,1.1-0.1
		c0.3-0.1,0.6-0.3,0.8-0.5c0.2-0.2,0.3-0.5,0.3-0.8c0-0.4-0.1-0.7-0.4-0.9c-0.3-0.2-0.6-0.4-1.1-0.5c-0.5-0.1-0.9-0.3-1.4-0.4
		c-0.4-0.1-0.9-0.2-1.3-0.4c-0.4-0.1-0.8-0.3-1.2-0.6c-0.3-0.2-0.6-0.5-0.8-0.9c-0.2-0.3-0.3-0.8-0.3-1.3c0-0.5,0.1-0.9,0.3-1.3
		c0.2-0.4,0.5-0.7,0.9-0.9c0.4-0.3,0.8-0.4,1.4-0.6c0.5-0.1,1.1-0.2,1.7-0.2c0.7,0,1.2,0.1,1.7,0.2c0.5,0.1,0.9,0.3,1.3,0.6
		c0.4,0.3,0.6,0.6,0.8,0.9c0.2,0.3,0.3,0.7,0.3,1.1c0,0.1,0,0.2,0,0.3c0,0.1,0,0.1,0,0.2h-2v-0.2c0-0.3-0.1-0.5-0.2-0.7
		c-0.1-0.2-0.4-0.4-0.7-0.5c-0.3-0.1-0.7-0.2-1.2-0.2c-0.3,0-0.7,0-0.9,0.1c-0.3,0.1-0.5,0.1-0.7,0.2c-0.2,0.1-0.3,0.2-0.4,0.4
		c-0.1,0.1-0.1,0.3-0.1,0.5c0,0.3,0.1,0.5,0.3,0.7c0.2,0.2,0.5,0.3,0.9,0.4c0.4,0.1,0.7,0.2,1.2,0.4c0.5,0.1,1,0.3,1.5,0.4
		c0.5,0.1,0.9,0.3,1.4,0.5c0.4,0.2,0.8,0.5,1,0.9c0.3,0.4,0.4,0.9,0.4,1.5c0,0.6-0.1,1.1-0.3,1.5c-0.2,0.4-0.5,0.8-1,1
		c-0.4,0.3-0.9,0.4-1.4,0.6C298.1,277.2,297.5,277.2,296.9,277.2z"/>
	<path class="st29" d="M102.1,243.2c-0.6,0-1.1-0.1-1.6-0.3c-0.5-0.2-0.9-0.5-1.2-0.9c-0.3-0.4-0.6-1-0.8-1.7
		c-0.2-0.7-0.3-1.7-0.3-2.8c0-1.1,0.1-2,0.3-2.8c0.2-0.7,0.4-1.3,0.8-1.7c0.3-0.4,0.7-0.7,1.2-0.9c0.5-0.2,1-0.3,1.6-0.3
		c0.6,0,1.1,0.1,1.6,0.3c0.5,0.2,0.9,0.5,1.2,0.9c0.3,0.4,0.6,1,0.8,1.7c0.2,0.7,0.3,1.6,0.3,2.8c0,1.1-0.1,2-0.3,2.8
		c-0.2,0.7-0.4,1.3-0.8,1.7c-0.3,0.4-0.7,0.7-1.2,0.9C103.2,243.1,102.7,243.2,102.1,243.2z M102.1,242c0.6,0,1.1-0.2,1.4-0.5
		c0.3-0.3,0.6-0.8,0.7-1.4c0.1-0.6,0.2-1.4,0.2-2.3v-0.7c0-0.9-0.1-1.7-0.2-2.3c-0.1-0.6-0.4-1.1-0.7-1.4c-0.3-0.3-0.8-0.5-1.4-0.5
		c-0.6,0-1.1,0.2-1.4,0.5c-0.3,0.3-0.6,0.8-0.7,1.4c-0.1,0.6-0.2,1.4-0.2,2.3v0.7c0,0.9,0.1,1.7,0.2,2.3c0.1,0.6,0.4,1.1,0.7,1.4
		C101,241.9,101.5,242,102.1,242z M107.7,243v-1.2h2.8v-7.6h-2.8v-0.9c0.4,0,0.8-0.1,1.2-0.2c0.4-0.1,0.8-0.2,1.2-0.4
		c0.4-0.2,0.8-0.4,1.1-0.7h0.6v9.8h2.6v1.2H107.7z M116.4,243v-1.7h1.6v1.7H116.4z M120.2,243v-0.5c0-0.4,0.1-0.9,0.3-1.2
		c0.2-0.4,0.4-0.7,0.7-1c0.3-0.3,0.6-0.6,1-0.9c0.4-0.3,0.8-0.6,1.1-0.8c0.5-0.4,1-0.7,1.4-1.1c0.4-0.4,0.8-0.8,1.1-1.2
		c0.3-0.4,0.4-0.9,0.4-1.4c0-0.3-0.1-0.6-0.2-0.9c-0.2-0.3-0.4-0.5-0.7-0.7c-0.3-0.2-0.7-0.2-1.2-0.2c-0.6,0-1,0.1-1.4,0.3
		c-0.3,0.2-0.6,0.4-0.8,0.8c-0.2,0.3-0.2,0.7-0.2,1.1v0.7h-1.4c0-0.1,0-0.1,0-0.2c0-0.1,0-0.3,0-0.4c0-0.8,0.2-1.4,0.5-1.9
		c0.4-0.5,0.8-0.8,1.4-1.1c0.6-0.2,1.2-0.4,1.9-0.4c0.6,0,1.1,0.1,1.6,0.3c0.4,0.2,0.8,0.4,1.1,0.7c0.3,0.3,0.5,0.6,0.6,1
		c0.1,0.4,0.2,0.7,0.2,1.2c0,0.5-0.1,1-0.3,1.4c-0.2,0.4-0.4,0.8-0.7,1.2c-0.3,0.4-0.7,0.7-1.1,1c-0.4,0.3-0.9,0.7-1.4,1
		c-0.3,0.2-0.7,0.5-1,0.7c-0.3,0.2-0.6,0.5-0.8,0.8c-0.2,0.3-0.4,0.5-0.4,0.7h5.8v1.3H120.2z M133.2,243.2c-0.8,0-1.4-0.1-2-0.4
		c-0.6-0.3-1-0.7-1.3-1.2c-0.3-0.5-0.5-1.2-0.5-1.9h1.4c0,0.5,0.1,0.9,0.3,1.3c0.2,0.4,0.5,0.6,0.9,0.8c0.4,0.2,0.8,0.3,1.2,0.3
		c0.5,0,0.9-0.1,1.2-0.3c0.4-0.2,0.6-0.5,0.8-0.9c0.2-0.4,0.3-0.9,0.3-1.5c0-0.5-0.1-1-0.3-1.3c-0.2-0.4-0.4-0.6-0.8-0.8
		c-0.3-0.2-0.7-0.3-1.2-0.3c-0.3,0-0.6,0.1-0.9,0.2c-0.3,0.1-0.5,0.2-0.8,0.4c-0.2,0.2-0.4,0.4-0.6,0.7l-1.3-0.2l0.5-6.1h6.2v1.3h-5
		l-0.3,3.4c0.2-0.2,0.4-0.3,0.6-0.4c0.2-0.1,0.5-0.2,0.8-0.3c0.3-0.1,0.6-0.1,1-0.1c0.6,0,1.2,0.1,1.7,0.4c0.5,0.2,0.9,0.6,1.2,1.1
		c0.3,0.5,0.4,1.2,0.4,2c0,0.8-0.2,1.5-0.5,2.1c-0.3,0.6-0.7,1-1.3,1.3C134.6,243,133.9,243.2,133.2,243.2z M139.1,243v-1.7h1.6v1.7
		H139.1z M142.9,243v-0.5c0-0.4,0.1-0.9,0.3-1.2c0.2-0.4,0.4-0.7,0.7-1c0.3-0.3,0.6-0.6,1-0.9c0.4-0.3,0.8-0.6,1.1-0.8
		c0.5-0.4,1-0.7,1.4-1.1c0.4-0.4,0.8-0.8,1.1-1.2c0.3-0.4,0.4-0.9,0.4-1.4c0-0.3-0.1-0.6-0.2-0.9c-0.1-0.3-0.4-0.5-0.7-0.7
		c-0.3-0.2-0.7-0.2-1.2-0.2c-0.6,0-1,0.1-1.4,0.3c-0.3,0.2-0.6,0.4-0.8,0.8c-0.2,0.3-0.2,0.7-0.2,1.1v0.7h-1.4c0-0.1,0-0.1,0-0.2
		c0-0.1,0-0.3,0-0.4c0-0.8,0.2-1.4,0.5-1.9c0.4-0.5,0.8-0.8,1.4-1.1c0.6-0.2,1.2-0.4,1.9-0.4c0.6,0,1.1,0.1,1.6,0.3
		c0.4,0.2,0.8,0.4,1.1,0.7c0.3,0.3,0.5,0.6,0.6,1c0.1,0.4,0.2,0.7,0.2,1.2c0,0.5-0.1,1-0.3,1.4c-0.2,0.4-0.4,0.8-0.7,1.2
		c-0.3,0.4-0.7,0.7-1.1,1c-0.4,0.3-0.9,0.7-1.4,1c-0.3,0.2-0.7,0.5-1,0.7c-0.3,0.2-0.6,0.5-0.8,0.8c-0.2,0.3-0.4,0.5-0.4,0.7h5.8
		v1.3H142.9z M152.2,243v-1.2h2.8v-7.6h-2.8v-0.9c0.4,0,0.8-0.1,1.2-0.2c0.4-0.1,0.8-0.2,1.2-0.4c0.4-0.2,0.8-0.4,1.1-0.7h0.6v9.8
		h2.6v1.2H152.2z"/>
	<path class="st30" d="M172.6,243.2c-0.6,0-1.1-0.1-1.6-0.3c-0.5-0.2-0.9-0.5-1.2-0.9c-0.3-0.4-0.6-1-0.8-1.7
		c-0.2-0.7-0.3-1.7-0.3-2.8c0-1.1,0.1-2,0.3-2.8c0.2-0.7,0.4-1.3,0.8-1.7c0.3-0.4,0.7-0.7,1.2-0.9c0.5-0.2,1-0.3,1.6-0.3
		s1.1,0.1,1.6,0.3c0.5,0.2,0.9,0.5,1.2,0.9c0.3,0.4,0.6,1,0.8,1.7c0.2,0.7,0.3,1.6,0.3,2.8c0,1.1-0.1,2-0.3,2.8
		c-0.2,0.7-0.4,1.3-0.8,1.7c-0.3,0.4-0.7,0.7-1.2,0.9C173.7,243.1,173.2,243.2,172.6,243.2z M172.6,242c0.6,0,1.1-0.2,1.4-0.5
		c0.3-0.3,0.6-0.8,0.7-1.4c0.1-0.6,0.2-1.4,0.2-2.3v-0.7c0-0.9-0.1-1.7-0.2-2.3c-0.1-0.6-0.4-1.1-0.7-1.4c-0.3-0.3-0.8-0.5-1.4-0.5
		s-1.1,0.2-1.4,0.5c-0.3,0.3-0.6,0.8-0.7,1.4c-0.1,0.6-0.2,1.4-0.2,2.3v0.7c0,0.9,0.1,1.7,0.2,2.3c0.1,0.6,0.4,1.1,0.7,1.4
		C171.5,241.9,172,242,172.6,242z M179.5,243c0-1,0.1-1.9,0.4-2.9c0.3-0.9,0.6-1.8,1-2.6c0.4-0.8,0.9-1.6,1.4-2.3
		c0.5-0.7,1-1.3,1.4-1.9h-5.9V232h7.7v0.9c-0.4,0.5-0.8,1-1.2,1.5c-0.4,0.6-0.8,1.1-1.2,1.8c-0.4,0.6-0.7,1.3-1,1.9
		c-0.3,0.7-0.6,1.4-0.7,2c-0.2,0.7-0.3,1.4-0.3,2v0.8H179.5z M187.6,236.3v-1.7h1.6v1.7H187.6z M187.6,243v-1.7h1.6v1.7H187.6z
		 M191.6,243v-0.5c0-0.4,0.1-0.9,0.3-1.2c0.2-0.4,0.4-0.7,0.7-1c0.3-0.3,0.6-0.6,1-0.9c0.4-0.3,0.8-0.6,1.1-0.8
		c0.5-0.4,1-0.7,1.4-1.1c0.4-0.4,0.8-0.8,1.1-1.2c0.3-0.4,0.4-0.9,0.4-1.4c0-0.3-0.1-0.6-0.2-0.9c-0.1-0.3-0.4-0.5-0.7-0.7
		s-0.7-0.2-1.2-0.2c-0.6,0-1,0.1-1.4,0.3c-0.3,0.2-0.6,0.4-0.8,0.8c-0.1,0.3-0.2,0.7-0.2,1.1v0.7h-1.4c0-0.1,0-0.1,0-0.2
		c0-0.1,0-0.3,0-0.4c0-0.8,0.2-1.4,0.5-1.9c0.4-0.5,0.8-0.8,1.4-1.1c0.6-0.2,1.2-0.4,1.9-0.4c0.6,0,1.1,0.1,1.6,0.3
		c0.4,0.2,0.8,0.4,1.1,0.7c0.3,0.3,0.5,0.6,0.6,1c0.1,0.4,0.2,0.7,0.2,1.2c0,0.5-0.1,1-0.3,1.4c-0.2,0.4-0.4,0.8-0.7,1.2
		c-0.3,0.4-0.7,0.7-1.1,1c-0.4,0.3-0.9,0.7-1.4,1c-0.3,0.2-0.7,0.5-1,0.7c-0.3,0.2-0.6,0.5-0.8,0.8s-0.4,0.5-0.4,0.7h5.8v1.3H191.6z
		 M204.4,243.2c-0.6,0-1.1-0.1-1.6-0.3c-0.5-0.2-0.9-0.5-1.2-0.9c-0.3-0.4-0.6-1-0.8-1.7c-0.2-0.7-0.3-1.7-0.3-2.8
		c0-1.1,0.1-2,0.3-2.8c0.2-0.7,0.4-1.3,0.8-1.7c0.3-0.4,0.7-0.7,1.2-0.9c0.5-0.2,1-0.3,1.6-0.3s1.1,0.1,1.6,0.3
		c0.5,0.2,0.9,0.5,1.2,0.9c0.3,0.4,0.6,1,0.8,1.7c0.2,0.7,0.3,1.6,0.3,2.8c0,1.1-0.1,2-0.3,2.8c-0.2,0.7-0.4,1.3-0.8,1.7
		c-0.3,0.4-0.7,0.7-1.2,0.9C205.5,243.1,205,243.2,204.4,243.2z M204.4,242c0.6,0,1.1-0.2,1.4-0.5c0.3-0.3,0.6-0.8,0.7-1.4
		c0.1-0.6,0.2-1.4,0.2-2.3v-0.7c0-0.9-0.1-1.7-0.2-2.3c-0.1-0.6-0.4-1.1-0.7-1.4c-0.3-0.3-0.8-0.5-1.4-0.5s-1.1,0.2-1.4,0.5
		c-0.3,0.3-0.6,0.8-0.7,1.4c-0.1,0.6-0.2,1.4-0.2,2.3v0.7c0,0.9,0.1,1.7,0.2,2.3c0.1,0.6,0.4,1.1,0.7,1.4
		C203.3,241.9,203.8,242,204.4,242z M213.7,243v-11h5.4c0.8,0,1.4,0.1,1.9,0.4c0.5,0.3,0.9,0.7,1.1,1.2c0.3,0.5,0.4,1.1,0.4,1.7
		c0,0.7-0.1,1.3-0.4,1.8c-0.3,0.5-0.7,0.9-1.2,1.2c-0.5,0.3-1.1,0.4-1.8,0.4h-3.9v4.2H213.7z M215.2,237.5h3.8
		c0.6,0,1.1-0.2,1.4-0.6c0.4-0.4,0.5-0.9,0.5-1.5c0-0.4-0.1-0.8-0.2-1.1c-0.1-0.3-0.4-0.5-0.7-0.7c-0.3-0.2-0.7-0.3-1.1-0.3h-3.8
		V237.5z M224.4,243v-11h2.4l2.5,7.1c0.1,0.2,0.1,0.4,0.2,0.6c0.1,0.2,0.1,0.4,0.2,0.6c0.1,0.2,0.1,0.4,0.1,0.5h0.1
		c0-0.2,0.1-0.3,0.1-0.5c0.1-0.2,0.1-0.4,0.2-0.7c0.1-0.2,0.1-0.4,0.2-0.6l2.5-7.1h2.3v11h-1.5v-6.4c0-0.3,0-0.7,0-1.1
		c0-0.4,0-0.8,0-1.1c0-0.3,0-0.6,0-0.7h-0.1c0,0.1-0.1,0.3-0.2,0.6c-0.1,0.2-0.2,0.5-0.2,0.8c-0.1,0.3-0.1,0.5-0.2,0.7l-2.6,7.2
		h-1.3l-2.6-7.2c-0.1-0.2-0.1-0.4-0.2-0.6c-0.1-0.2-0.1-0.5-0.2-0.8c-0.1-0.3-0.1-0.5-0.2-0.7h-0.1c0,0.2,0,0.5,0,0.9
		c0,0.3,0,0.7,0,1c0,0.3,0,0.7,0,0.9v6.4H224.4z"/>
	
		<linearGradient id="SVGID_00000137107587601439559300000011659708598975109787_" gradientUnits="userSpaceOnUse" x1="344.5504" y1="486.6653" x2="363.6424" y2="467.5743" gradientTransform="matrix(0.7071 0.7071 0.7071 -0.7071 -408.6176 296.4902)">
		<stop  offset="0" style="stop-color:#0E0D12"/>
		<stop  offset="1" style="stop-color:#15151B"/>
	</linearGradient>
	<path style="fill:url(#SVGID_00000137107587601439559300000011659708598975109787_);" d="M180.6,196.4l11.3,11.3
		c0.8,0.8,0.8,2,0,2.8l-11.3,11.3c-0.8,0.8-2,0.8-2.8,0l-11.3-11.3c-0.8-0.8-0.8-2,0-2.8l11.3-11.3
		C178.5,195.6,179.8,195.6,180.6,196.4z"/>
</g>
<g class="st26">
	<path class="st27" d="M653,208h278c4.4,0,8,3.6,8,8v104c0,4.4-3.6,8-8,8H653c-4.4,0-8-3.6-8-8V216C645,211.6,648.6,208,653,208z"/>
	<path class="st28" d="M662.6,277v-13.7h7.3c0.8,0,1.4,0.1,2,0.4c0.6,0.3,1,0.7,1.3,1.2c0.3,0.5,0.5,1.1,0.5,1.8
		c0,0.5-0.1,1-0.3,1.4c-0.2,0.4-0.5,0.8-0.8,1.1c-0.3,0.3-0.7,0.5-1.1,0.7v0.1c0.5,0.1,0.9,0.3,1.3,0.6c0.4,0.3,0.7,0.7,0.9,1.1
		c0.2,0.5,0.4,1,0.4,1.6c0,0.9-0.2,1.6-0.6,2.1c-0.4,0.6-0.9,1-1.5,1.2c-0.6,0.3-1.3,0.4-2.1,0.4H662.6z M664.9,275.1h4.9
		c0.6,0,1.1-0.2,1.5-0.5c0.4-0.3,0.6-0.9,0.6-1.6c0-0.4-0.1-0.8-0.3-1.1c-0.2-0.3-0.4-0.6-0.7-0.7c-0.3-0.2-0.8-0.3-1.3-0.3h-4.7
		V275.1z M664.9,269h4.5c0.4,0,0.8-0.1,1.1-0.2s0.5-0.4,0.7-0.7c0.2-0.3,0.3-0.6,0.3-1c0-0.7-0.2-1.1-0.5-1.4
		c-0.3-0.3-0.8-0.5-1.4-0.5h-4.7V269z M680.9,277.2c-1.1,0-2-0.2-2.8-0.6c-0.7-0.4-1.3-1-1.7-1.8c-0.4-0.8-0.6-1.8-0.6-3.1
		c0-1.3,0.2-2.3,0.6-3.1c0.4-0.8,1-1.4,1.7-1.8c0.8-0.4,1.7-0.6,2.8-0.6c1.1,0,2.1,0.2,2.8,0.6c0.7,0.4,1.3,1,1.7,1.8
		c0.4,0.8,0.6,1.8,0.6,3.1c0,1.3-0.2,2.3-0.6,3.1c-0.4,0.8-0.9,1.4-1.7,1.8C682.9,277,682,277.2,680.9,277.2z M680.9,275.5
		c0.7,0,1.2-0.1,1.6-0.4c0.4-0.3,0.7-0.7,0.9-1.2c0.2-0.5,0.3-1.2,0.3-2v-0.4c0-0.8-0.1-1.5-0.3-2c-0.2-0.5-0.5-0.9-0.9-1.2
		c-0.4-0.3-1-0.4-1.6-0.4c-0.7,0-1.2,0.1-1.6,0.4c-0.4,0.3-0.7,0.6-1,1.2c-0.2,0.5-0.3,1.2-0.3,2v0.4c0,0.8,0.1,1.5,0.3,2
		c0.2,0.5,0.5,0.9,1,1.2C679.7,275.4,680.2,275.5,680.9,275.5z M691.3,277.2c-1,0-1.8-0.3-2.5-0.8c-0.6-0.5-0.9-1.5-0.9-2.8v-7.2
		h2.1v6.9c0,0.4,0,0.7,0.1,1c0.1,0.3,0.3,0.5,0.4,0.6c0.2,0.2,0.4,0.3,0.7,0.3c0.3,0.1,0.5,0.1,0.8,0.1c0.5,0,0.9-0.1,1.3-0.3
		c0.4-0.2,0.7-0.6,1-1c0.2-0.4,0.4-0.9,0.4-1.5v-6.2h2.1V277h-1.7l-0.2-1.5h-0.1c-0.3,0.4-0.6,0.7-0.9,1c-0.3,0.3-0.7,0.4-1.2,0.6
		C692.3,277.2,691.8,277.2,691.3,277.2z M701.2,280.6c-0.5,0-0.9-0.1-1.4-0.3c-0.4-0.2-0.7-0.5-1-0.9c-0.3-0.4-0.4-0.8-0.4-1.4
		c0-0.6,0.2-1.1,0.5-1.4c0.3-0.4,0.7-0.7,1.2-0.8c-0.3-0.1-0.6-0.4-0.8-0.6c-0.2-0.3-0.3-0.6-0.3-1c0-0.5,0.2-0.9,0.5-1.2
		s0.8-0.5,1.3-0.6c-0.5-0.3-0.8-0.7-1.1-1.2c-0.3-0.5-0.4-1-0.4-1.6c0-0.7,0.2-1.3,0.5-1.8c0.3-0.5,0.8-0.9,1.5-1.2
		c0.7-0.3,1.5-0.4,2.4-0.4c0.4,0,0.8,0,1.2,0.1c0.4,0.1,0.7,0.1,1,0.2c0.5-0.2,0.8-0.5,1-0.9c0.2-0.3,0.3-0.7,0.4-1h2
		c0,0.4-0.1,0.8-0.3,1.2c-0.2,0.3-0.4,0.6-0.7,0.9c-0.3,0.2-0.7,0.4-1.1,0.5c0.3,0.3,0.6,0.7,0.7,1.1c0.2,0.4,0.3,0.8,0.3,1.3
		c0,0.7-0.2,1.3-0.5,1.8c-0.3,0.5-0.8,0.9-1.5,1.2c-0.6,0.3-1.4,0.4-2.4,0.4h-1.6c-0.3,0-0.6,0.1-0.8,0.2c-0.2,0.1-0.3,0.3-0.3,0.6
		c0,0.2,0.1,0.4,0.3,0.6c0.2,0.1,0.4,0.2,0.7,0.2h4.4c0.8,0,1.4,0.3,1.9,0.8c0.5,0.5,0.8,1.2,0.8,2c0,0.6-0.2,1.1-0.5,1.6
		c-0.3,0.5-0.7,0.9-1.3,1.1c-0.5,0.3-1.2,0.4-1.9,0.4H701.2z M701.9,279.1h3.8c0.3,0,0.5-0.1,0.8-0.2c0.2-0.1,0.4-0.3,0.5-0.5
		c0.1-0.2,0.2-0.4,0.2-0.6c0-0.4-0.1-0.7-0.4-0.9c-0.2-0.2-0.5-0.3-0.9-0.3h-4c-0.4,0-0.7,0.1-0.9,0.4c-0.3,0.2-0.4,0.5-0.4,0.9
		c0,0.4,0.1,0.7,0.4,0.9C701.2,279,701.5,279.1,701.9,279.1z M703.8,271.7c0.8,0,1.4-0.2,1.8-0.5c0.4-0.4,0.6-0.8,0.6-1.5
		c0-0.6-0.2-1.1-0.6-1.4c-0.4-0.3-1-0.5-1.8-0.5c-0.8,0-1.4,0.2-1.8,0.5c-0.4,0.3-0.6,0.8-0.6,1.4c0,0.4,0.1,0.8,0.2,1.1
		c0.2,0.3,0.4,0.5,0.8,0.7C702.9,271.6,703.3,271.7,703.8,271.7z M711,277v-14.5h2.1v5.2h0.1c0.3-0.3,0.5-0.6,0.9-0.8
		c0.3-0.2,0.7-0.4,1.1-0.5c0.4-0.1,0.8-0.2,1.3-0.2c0.7,0,1.3,0.1,1.8,0.4c0.5,0.2,0.9,0.6,1.2,1.1c0.3,0.5,0.4,1.2,0.4,2.1v7.2
		h-2.1v-6.9c0-0.4-0.1-0.7-0.2-1c-0.1-0.3-0.2-0.5-0.4-0.6c-0.2-0.2-0.4-0.3-0.7-0.3c-0.3-0.1-0.5-0.1-0.8-0.1
		c-0.5,0-0.9,0.1-1.3,0.3c-0.4,0.2-0.7,0.5-0.9,1c-0.2,0.4-0.4,0.9-0.4,1.5v6.2H711z M725,277.2c-0.6,0-1.1-0.1-1.4-0.3
		c-0.3-0.2-0.6-0.5-0.7-0.9c-0.1-0.4-0.2-0.8-0.2-1.2v-6.6h-1.3v-1.7h1.4l0.4-2.9h1.7v2.9h1.9v1.7h-1.9v6.4c0,0.3,0.1,0.5,0.2,0.7
		c0.1,0.2,0.4,0.2,0.7,0.2h1v1.4c-0.1,0.1-0.3,0.1-0.5,0.1c-0.2,0.1-0.4,0.1-0.6,0.1C725.4,277.2,725.2,277.2,725,277.2z
		 M735.3,277.2c-0.3,0-0.7,0-1.1-0.1c-0.4-0.1-0.8-0.2-1.1-0.4c-0.3-0.2-0.6-0.5-0.8-0.9c-0.2-0.4-0.3-0.9-0.3-1.5
		c0-0.7,0.2-1.3,0.5-1.8c0.3-0.5,0.8-0.8,1.4-1.1c0.6-0.3,1.3-0.5,2.1-0.6c0.8-0.1,1.8-0.2,2.7-0.2v-1c0-0.3-0.1-0.7-0.2-0.9
		c-0.1-0.3-0.3-0.5-0.6-0.6c-0.3-0.1-0.7-0.2-1.3-0.2s-1,0.1-1.3,0.2c-0.3,0.1-0.5,0.3-0.7,0.5c-0.1,0.2-0.2,0.4-0.2,0.7v0.3h-2
		c0-0.1,0-0.1,0-0.2c0-0.1,0-0.1,0-0.2c0-0.6,0.2-1.2,0.5-1.6c0.4-0.4,0.9-0.8,1.5-1c0.6-0.2,1.4-0.3,2.2-0.3c0.9,0,1.7,0.1,2.3,0.4
		c0.6,0.3,1.1,0.6,1.4,1.1c0.3,0.5,0.5,1.1,0.5,1.7v5.3c0,0.3,0.1,0.4,0.2,0.5c0.1,0.1,0.3,0.2,0.5,0.2h0.7v1.4
		c-0.2,0.1-0.4,0.1-0.6,0.2c-0.2,0.1-0.5,0.1-0.8,0.1c-0.4,0-0.7-0.1-0.9-0.2c-0.2-0.1-0.4-0.3-0.6-0.5c-0.1-0.2-0.2-0.5-0.3-0.8
		h-0.1c-0.2,0.3-0.5,0.6-0.9,0.8c-0.3,0.2-0.7,0.4-1.2,0.5C736.3,277.2,735.8,277.2,735.3,277.2z M735.9,275.5
		c0.4,0,0.8-0.1,1.1-0.2c0.4-0.1,0.7-0.3,0.9-0.5c0.3-0.2,0.5-0.5,0.6-0.8c0.1-0.3,0.2-0.7,0.2-1.1v-0.7c-0.9,0-1.7,0.1-2.4,0.2
		c-0.7,0.1-1.2,0.3-1.6,0.6c-0.4,0.3-0.6,0.7-0.6,1.2c0,0.3,0.1,0.6,0.2,0.8c0.1,0.2,0.3,0.4,0.6,0.5
		C735.2,275.5,735.5,275.5,735.9,275.5z M748,277v-13.7h3.5l2.7,8.3c0.1,0.2,0.2,0.5,0.2,0.8c0.1,0.3,0.2,0.6,0.2,0.9
		c0.1,0.3,0.1,0.5,0.2,0.7h0.2c0-0.2,0.1-0.4,0.1-0.7s0.1-0.6,0.2-0.9c0.1-0.3,0.2-0.6,0.2-0.9l2.7-8.3h3.4V277h-2.2v-7.5
		c0-0.5,0-1,0-1.6s0-1,0-1.5s0-0.7,0-0.8h-0.2c0,0.1-0.1,0.4-0.2,0.8c-0.1,0.3-0.2,0.7-0.3,1.1s-0.2,0.7-0.3,1l-2.8,8.5h-2l-2.8-8.4
		c-0.1-0.3-0.2-0.6-0.3-0.9c-0.1-0.3-0.2-0.7-0.3-1.1c-0.1-0.4-0.2-0.7-0.2-1h-0.2c0,0.3,0,0.7,0,1.2c0,0.5,0,0.9,0,1.4
		c0,0.5,0,0.9,0,1.3v7.5H748z M769.1,277.2c-1.1,0-2-0.2-2.8-0.6c-0.7-0.4-1.3-1-1.7-1.8c-0.4-0.8-0.6-1.8-0.6-3.1
		c0-1.3,0.2-2.3,0.6-3.1c0.4-0.8,1-1.4,1.7-1.8c0.8-0.4,1.7-0.6,2.8-0.6c1.1,0,2.1,0.2,2.8,0.6c0.7,0.4,1.3,1,1.7,1.8
		c0.4,0.8,0.6,1.8,0.6,3.1c0,1.3-0.2,2.3-0.6,3.1c-0.4,0.8-0.9,1.4-1.7,1.8C771.2,277,770.2,277.2,769.1,277.2z M769.1,275.5
		c0.7,0,1.2-0.1,1.6-0.4c0.4-0.3,0.7-0.7,0.9-1.2c0.2-0.5,0.3-1.2,0.3-2v-0.4c0-0.8-0.1-1.5-0.3-2c-0.2-0.5-0.5-0.9-0.9-1.2
		c-0.4-0.3-1-0.4-1.6-0.4c-0.7,0-1.2,0.1-1.6,0.4c-0.4,0.3-0.7,0.6-1,1.2c-0.2,0.5-0.3,1.2-0.3,2v0.4c0,0.8,0.1,1.5,0.3,2
		c0.2,0.5,0.5,0.9,1,1.2C767.9,275.4,768.5,275.5,769.1,275.5z M776.3,277v-10.5h1.7l0.2,1.5h0.1c0.3-0.4,0.6-0.7,0.9-1
		c0.3-0.3,0.7-0.4,1.1-0.6c0.4-0.1,0.9-0.2,1.4-0.2c0.7,0,1.3,0.1,1.8,0.4c0.5,0.2,0.9,0.6,1.2,1.1c0.3,0.5,0.4,1.2,0.4,2.1v7.2
		h-2.1v-6.9c0-0.4-0.1-0.7-0.2-1c-0.1-0.3-0.2-0.5-0.4-0.6c-0.2-0.2-0.4-0.3-0.7-0.3c-0.3-0.1-0.5-0.1-0.8-0.1
		c-0.5,0-0.9,0.1-1.3,0.4c-0.4,0.2-0.7,0.5-0.9,1c-0.2,0.4-0.4,0.9-0.4,1.5v6.2H776.3z M790.4,277.2c-0.6,0-1.1-0.1-1.4-0.3
		c-0.3-0.2-0.6-0.5-0.7-0.9c-0.1-0.4-0.2-0.8-0.2-1.2v-6.6h-1.3v-1.7h1.4l0.4-2.9h1.7v2.9h1.9v1.7h-1.9v6.4c0,0.3,0.1,0.5,0.2,0.7
		s0.4,0.2,0.7,0.2h1v1.4c-0.1,0.1-0.3,0.1-0.5,0.1c-0.2,0.1-0.4,0.1-0.6,0.1C790.7,277.2,790.5,277.2,790.4,277.2z M793.8,277v-14.5
		h2.1v5.2h0.1c0.3-0.3,0.5-0.6,0.9-0.8c0.3-0.2,0.7-0.4,1.1-0.5c0.4-0.1,0.8-0.2,1.3-0.2c0.7,0,1.3,0.1,1.8,0.4
		c0.5,0.2,0.9,0.6,1.2,1.1c0.3,0.5,0.4,1.2,0.4,2.1v7.2h-2.1v-6.9c0-0.4-0.1-0.7-0.2-1c-0.1-0.3-0.2-0.5-0.4-0.6s-0.4-0.3-0.7-0.3
		c-0.3-0.1-0.5-0.1-0.8-0.1c-0.5,0-0.9,0.1-1.3,0.3c-0.4,0.2-0.7,0.5-0.9,1c-0.2,0.4-0.4,0.9-0.4,1.5v6.2H793.8z M814.8,277.2
		c-0.7,0-1.5-0.1-2.2-0.2c-0.7-0.1-1.3-0.4-1.8-0.7c-0.5-0.3-1-0.8-1.3-1.3c-0.3-0.5-0.5-1.2-0.5-1.9c0-0.1,0-0.2,0-0.2
		c0-0.1,0-0.1,0-0.2h2.2c0,0,0,0.1,0,0.2c0,0.1,0,0.1,0,0.2c0,0.5,0.1,0.9,0.4,1.3c0.3,0.3,0.7,0.6,1.2,0.8c0.5,0.2,1.1,0.3,1.8,0.3
		c0.4,0,0.7,0,1.1-0.1c0.3-0.1,0.7-0.1,0.9-0.2c0.3-0.1,0.5-0.2,0.8-0.4c0.2-0.2,0.4-0.3,0.5-0.6c0.1-0.2,0.2-0.5,0.2-0.7
		c0-0.4-0.1-0.8-0.4-1.1c-0.2-0.3-0.6-0.5-1-0.7c-0.4-0.2-0.9-0.4-1.4-0.5c-0.5-0.1-1.1-0.3-1.6-0.4s-1.1-0.3-1.6-0.5
		c-0.5-0.2-1-0.4-1.4-0.7c-0.4-0.3-0.7-0.7-1-1.1c-0.2-0.4-0.4-1-0.4-1.6c0-0.6,0.1-1.1,0.4-1.6c0.3-0.5,0.6-0.9,1.1-1.2
		c0.5-0.3,1.1-0.6,1.7-0.7c0.7-0.2,1.4-0.2,2.3-0.2c0.7,0,1.4,0.1,2,0.2c0.6,0.1,1.2,0.4,1.7,0.7c0.5,0.3,0.9,0.7,1.1,1.2
		c0.3,0.5,0.4,1.1,0.4,1.8v0.2h-2.2v-0.3c0-0.4-0.1-0.8-0.4-1.1c-0.3-0.3-0.6-0.5-1.1-0.7c-0.5-0.2-1-0.2-1.6-0.2
		c-0.7,0-1.3,0.1-1.8,0.2c-0.5,0.1-0.8,0.3-1.1,0.6c-0.2,0.2-0.4,0.5-0.4,0.9c0,0.4,0.1,0.7,0.4,1c0.3,0.2,0.6,0.4,1,0.6
		c0.4,0.2,0.9,0.3,1.4,0.5c0.5,0.1,1.1,0.3,1.6,0.4c0.6,0.1,1.1,0.3,1.6,0.5c0.5,0.2,1,0.4,1.4,0.7c0.4,0.3,0.8,0.7,1,1.1
		c0.3,0.4,0.4,1,0.4,1.6c0,1-0.2,1.8-0.7,2.4c-0.5,0.6-1.2,1.1-2,1.3C816.9,277.1,815.9,277.2,814.8,277.2z M826.1,277.2
		c-1,0-1.8-0.3-2.5-0.8c-0.6-0.5-0.9-1.5-0.9-2.8v-7.2h2.1v6.9c0,0.4,0,0.7,0.1,1c0.1,0.3,0.3,0.5,0.4,0.6c0.2,0.2,0.4,0.3,0.7,0.3
		c0.3,0.1,0.5,0.1,0.8,0.1c0.5,0,0.9-0.1,1.3-0.3c0.4-0.2,0.7-0.6,1-1c0.2-0.4,0.4-0.9,0.4-1.5v-6.2h2.1V277h-1.7l-0.2-1.5h-0.1
		c-0.3,0.4-0.6,0.7-0.9,1c-0.3,0.3-0.7,0.4-1.2,0.6C827.1,277.2,826.6,277.2,826.1,277.2z M839.5,277.2c-0.7,0-1.3-0.1-1.9-0.4
		s-1-0.7-1.4-1.3h-0.1L836,277h-1.7v-14.5h2.1v5.2h0.1c0.2-0.3,0.5-0.6,0.8-0.9c0.3-0.2,0.7-0.4,1.1-0.5c0.4-0.1,0.8-0.2,1.3-0.2
		c0.8,0,1.5,0.2,2.1,0.6c0.6,0.4,1.1,1,1.4,1.8c0.3,0.8,0.5,1.8,0.5,3.1c0,1.3-0.2,2.3-0.5,3.2c-0.3,0.8-0.8,1.4-1.4,1.8
		C841.1,277,840.4,277.2,839.5,277.2z M839,275.4c0.6,0,1.1-0.1,1.5-0.4c0.4-0.2,0.7-0.6,0.9-1.1c0.2-0.5,0.3-1.2,0.3-2v-0.4
		c0-0.8-0.1-1.5-0.3-2c-0.2-0.5-0.5-0.9-0.8-1.1c-0.4-0.3-0.9-0.4-1.5-0.4c-0.4,0-0.7,0.1-1.1,0.2s-0.6,0.3-0.8,0.6
		c-0.2,0.3-0.4,0.6-0.5,1.1s-0.2,1-0.2,1.6v0.3c0,0.8,0.1,1.4,0.3,1.9c0.2,0.5,0.5,0.9,0.9,1.2C837.8,275.3,838.3,275.4,839,275.4z
		 M849.7,277.2c-0.7,0-1.4-0.1-1.9-0.2s-1-0.4-1.4-0.7c-0.4-0.3-0.7-0.6-0.9-1c-0.2-0.4-0.3-0.8-0.3-1.3c0-0.1,0-0.1,0-0.2
		c0-0.1,0-0.1,0-0.1h2.1c0,0,0,0.1,0,0.1c0,0,0,0.1,0,0.1c0,0.4,0.1,0.7,0.3,1c0.2,0.2,0.5,0.4,0.9,0.5c0.4,0.1,0.8,0.1,1.3,0.1
		c0.4,0,0.8,0,1.1-0.1c0.3-0.1,0.6-0.3,0.8-0.5c0.2-0.2,0.3-0.5,0.3-0.8c0-0.4-0.1-0.7-0.4-0.9c-0.3-0.2-0.6-0.4-1.1-0.5
		c-0.5-0.1-0.9-0.3-1.4-0.4c-0.4-0.1-0.9-0.2-1.3-0.4c-0.4-0.1-0.8-0.3-1.2-0.6c-0.3-0.2-0.6-0.5-0.8-0.9c-0.2-0.3-0.3-0.8-0.3-1.3
		c0-0.5,0.1-0.9,0.3-1.3c0.2-0.4,0.5-0.7,0.9-0.9c0.4-0.3,0.8-0.4,1.4-0.6c0.5-0.1,1.1-0.2,1.7-0.2c0.7,0,1.2,0.1,1.7,0.2
		c0.5,0.1,0.9,0.3,1.3,0.6c0.4,0.3,0.6,0.6,0.8,0.9c0.2,0.3,0.3,0.7,0.3,1.1c0,0.1,0,0.2,0,0.3c0,0.1,0,0.1,0,0.2h-2v-0.2
		c0-0.3-0.1-0.5-0.2-0.7c-0.1-0.2-0.4-0.4-0.7-0.5c-0.3-0.1-0.7-0.2-1.2-0.2c-0.3,0-0.7,0-0.9,0.1c-0.3,0.1-0.5,0.1-0.7,0.2
		c-0.2,0.1-0.3,0.2-0.4,0.4c-0.1,0.1-0.1,0.3-0.1,0.5c0,0.3,0.1,0.5,0.3,0.7c0.2,0.2,0.5,0.3,0.9,0.4c0.4,0.1,0.7,0.2,1.2,0.4
		c0.5,0.1,1,0.3,1.5,0.4c0.5,0.1,0.9,0.3,1.4,0.5c0.4,0.2,0.8,0.5,1,0.9c0.3,0.4,0.4,0.9,0.4,1.5c0,0.6-0.1,1.1-0.3,1.5
		c-0.2,0.4-0.5,0.8-1,1c-0.4,0.3-0.9,0.4-1.4,0.6C850.9,277.2,850.4,277.2,849.7,277.2z M860.5,277.2c-1.1,0-1.9-0.2-2.6-0.6
		c-0.7-0.4-1.2-1-1.6-1.8c-0.3-0.8-0.5-1.8-0.5-3.1c0-1.3,0.2-2.3,0.5-3.1c0.4-0.8,0.9-1.4,1.6-1.8c0.7-0.4,1.6-0.6,2.6-0.6
		c0.7,0,1.3,0.1,1.9,0.3c0.5,0.2,1,0.4,1.4,0.8c0.4,0.3,0.6,0.8,0.8,1.3c0.2,0.5,0.3,1.1,0.3,1.8h-2.1c0-0.6-0.1-1-0.2-1.4
		c-0.2-0.4-0.4-0.6-0.7-0.8c-0.3-0.2-0.8-0.3-1.3-0.3c-0.6,0-1,0.1-1.4,0.4c-0.4,0.3-0.7,0.6-0.9,1.2c-0.2,0.5-0.3,1.2-0.3,2.1v0.3
		c0,0.8,0.1,1.5,0.3,2c0.2,0.5,0.5,0.9,0.9,1.2c0.4,0.3,0.9,0.4,1.5,0.4c0.5,0,1-0.1,1.3-0.3c0.3-0.2,0.6-0.5,0.7-0.8
		c0.2-0.4,0.3-0.8,0.3-1.3h2c0,0.6-0.1,1.2-0.3,1.7c-0.2,0.5-0.4,0.9-0.8,1.3c-0.4,0.4-0.8,0.6-1.4,0.8
		C861.9,277.1,861.2,277.2,860.5,277.2z M867,277v-10.5h1.7l0.2,1.7h0.1c0.1-0.3,0.3-0.6,0.5-0.9c0.2-0.3,0.5-0.5,0.8-0.7
		c0.3-0.2,0.7-0.3,1.2-0.3c0.2,0,0.4,0,0.6,0.1c0.2,0,0.3,0.1,0.4,0.1v2h-0.7c-0.4,0-0.8,0.1-1.1,0.2c-0.3,0.1-0.6,0.3-0.8,0.6
		c-0.2,0.3-0.4,0.6-0.5,0.9c-0.1,0.4-0.1,0.8-0.1,1.3v5.6H867z M873.9,264.7v-2.1h2.1v2.1H873.9z M873.9,277v-10.5h2.1V277H873.9z
		 M878.6,280.5v-14h1.7l0.2,1.4h0.1c0.4-0.6,0.8-1,1.4-1.3s1.2-0.4,1.9-0.4c0.9,0,1.6,0.2,2.2,0.6c0.6,0.4,1.1,1,1.4,1.8
		c0.3,0.8,0.5,1.9,0.5,3.2c0,1.3-0.2,2.3-0.5,3.1c-0.3,0.8-0.8,1.4-1.4,1.8c-0.6,0.4-1.3,0.6-2.1,0.6c-0.5,0-0.9-0.1-1.3-0.2
		c-0.4-0.1-0.8-0.3-1.1-0.5c-0.3-0.2-0.6-0.5-0.8-0.9h-0.1v4.7H878.6z M883.3,275.4c0.6,0,1.1-0.1,1.5-0.4c0.4-0.3,0.7-0.6,0.8-1.2
		c0.2-0.5,0.3-1.2,0.3-2v-0.4c0-0.8-0.1-1.5-0.3-2c-0.2-0.5-0.5-0.9-0.9-1.1c-0.4-0.2-0.9-0.4-1.5-0.4c-0.6,0-1.1,0.1-1.5,0.4
		c-0.4,0.3-0.7,0.7-0.9,1.2c-0.2,0.5-0.3,1.2-0.3,1.9v0.3c0,0.6,0.1,1.2,0.2,1.6s0.3,0.8,0.5,1.1c0.2,0.3,0.5,0.5,0.8,0.6
		C882.6,275.4,882.9,275.4,883.3,275.4z M892.9,277.2c-0.6,0-1.1-0.1-1.4-0.3c-0.3-0.2-0.6-0.5-0.7-0.9c-0.1-0.4-0.2-0.8-0.2-1.2
		v-6.6h-1.3v-1.7h1.4l0.4-2.9h1.7v2.9h1.9v1.7h-1.9v6.4c0,0.3,0.1,0.5,0.2,0.7c0.1,0.2,0.4,0.2,0.7,0.2h1v1.4
		c-0.1,0.1-0.3,0.1-0.5,0.1c-0.2,0.1-0.4,0.1-0.6,0.1C893.2,277.2,893,277.2,892.9,277.2z M896.3,264.7v-2.1h2.1v2.1H896.3z
		 M896.3,277v-10.5h2.1V277H896.3z M905.6,277.2c-1.1,0-2-0.2-2.8-0.6c-0.7-0.4-1.3-1-1.7-1.8c-0.4-0.8-0.6-1.8-0.6-3.1
		c0-1.3,0.2-2.3,0.6-3.1c0.4-0.8,1-1.4,1.7-1.8c0.8-0.4,1.7-0.6,2.8-0.6c1.1,0,2.1,0.2,2.8,0.6c0.7,0.4,1.3,1,1.7,1.8
		c0.4,0.8,0.6,1.8,0.6,3.1c0,1.3-0.2,2.3-0.6,3.1c-0.4,0.8-0.9,1.4-1.7,1.8C907.6,277,906.7,277.2,905.6,277.2z M905.6,275.5
		c0.7,0,1.2-0.1,1.6-0.4c0.4-0.3,0.7-0.7,0.9-1.2c0.2-0.5,0.3-1.2,0.3-2v-0.4c0-0.8-0.1-1.5-0.3-2c-0.2-0.5-0.5-0.9-0.9-1.2
		c-0.4-0.3-1-0.4-1.6-0.4c-0.7,0-1.2,0.1-1.6,0.4c-0.4,0.3-0.7,0.6-1,1.2c-0.2,0.5-0.3,1.2-0.3,2v0.4c0,0.8,0.1,1.5,0.3,2
		c0.2,0.5,0.5,0.9,1,1.2C904.4,275.4,904.9,275.5,905.6,275.5z M912.8,277v-10.5h1.7l0.2,1.5h0.1c0.3-0.4,0.6-0.7,0.9-1
		c0.3-0.3,0.7-0.4,1.1-0.6c0.4-0.1,0.9-0.2,1.4-0.2c0.7,0,1.3,0.1,1.8,0.4c0.5,0.2,0.9,0.6,1.2,1.1c0.3,0.5,0.4,1.2,0.4,2.1v7.2
		h-2.1v-6.9c0-0.4-0.1-0.7-0.2-1c-0.1-0.3-0.2-0.5-0.4-0.6s-0.4-0.3-0.7-0.3c-0.3-0.1-0.5-0.1-0.8-0.1c-0.5,0-0.9,0.1-1.3,0.4
		c-0.4,0.2-0.7,0.5-0.9,1s-0.4,0.9-0.4,1.5v6.2H912.8z M662.8,305v-8.8h-1.5v-1.7h1.5V293c0-0.4,0.1-0.9,0.2-1.2
		c0.1-0.4,0.4-0.7,0.7-1c0.4-0.3,0.9-0.4,1.5-0.4c0.2,0,0.4,0,0.6,0c0.2,0,0.4,0,0.6,0.1c0.2,0,0.3,0.1,0.5,0.1v1.5h-1
		c-0.3,0-0.6,0.1-0.7,0.2c-0.1,0.2-0.2,0.4-0.2,0.7v1.4h2v1.7h-2v8.8H662.8z M672.6,305.2c-1.1,0-2-0.2-2.8-0.6
		c-0.7-0.4-1.3-1-1.7-1.8c-0.4-0.8-0.6-1.8-0.6-3.1c0-1.3,0.2-2.3,0.6-3.1c0.4-0.8,1-1.4,1.7-1.8c0.8-0.4,1.7-0.6,2.8-0.6
		c1.1,0,2.1,0.2,2.8,0.6c0.7,0.4,1.3,1,1.7,1.8c0.4,0.8,0.6,1.8,0.6,3.1c0,1.3-0.2,2.3-0.6,3.1c-0.4,0.8-0.9,1.4-1.7,1.8
		C674.6,305,673.7,305.2,672.6,305.2z M672.6,303.5c0.7,0,1.2-0.1,1.6-0.4c0.4-0.3,0.7-0.7,0.9-1.2c0.2-0.5,0.3-1.2,0.3-2v-0.4
		c0-0.8-0.1-1.5-0.3-2c-0.2-0.5-0.5-0.9-0.9-1.2c-0.4-0.3-1-0.4-1.6-0.4c-0.7,0-1.2,0.1-1.6,0.4c-0.4,0.3-0.7,0.6-1,1.2
		c-0.2,0.5-0.3,1.2-0.3,2v0.4c0,0.8,0.1,1.5,0.3,2c0.2,0.5,0.5,0.9,1,1.2C671.4,303.4,671.9,303.5,672.6,303.5z M679.8,305v-10.5
		h1.7l0.2,1.7h0.1c0.1-0.3,0.3-0.6,0.5-0.9c0.2-0.3,0.5-0.5,0.8-0.7c0.3-0.2,0.7-0.3,1.2-0.3c0.2,0,0.4,0,0.6,0.1
		c0.2,0,0.3,0.1,0.4,0.1v2h-0.7c-0.4,0-0.8,0.1-1.1,0.2c-0.3,0.1-0.6,0.3-0.8,0.6c-0.2,0.3-0.4,0.6-0.5,0.9
		c-0.1,0.4-0.1,0.8-0.1,1.3v5.6H679.8z"/>
	<path class="st32" d="M693.8,293.6v-3h1v3H693.8z M693.8,306v-3.2h1v3.2H693.8z M694.3,303.6c-0.7,0-1.4-0.1-1.9-0.2
		c-0.6-0.2-1-0.4-1.4-0.7c-0.4-0.3-0.7-0.6-0.9-1c-0.2-0.4-0.3-0.8-0.3-1.3c0-0.1,0-0.1,0-0.2c0-0.1,0-0.1,0-0.1h2.1
		c0,0,0,0.1,0,0.1c0,0,0,0.1,0,0.1c0,0.4,0.1,0.7,0.3,1c0.2,0.2,0.5,0.4,0.9,0.5c0.4,0.1,0.8,0.1,1.3,0.1c0.4,0,0.8,0,1.1-0.1
		c0.3-0.1,0.6-0.2,0.8-0.4c0.2-0.2,0.3-0.5,0.3-0.8c0-0.4-0.1-0.7-0.4-0.9c-0.3-0.2-0.6-0.4-1.1-0.5c-0.5-0.1-0.9-0.3-1.4-0.4
		c-0.4-0.1-0.9-0.3-1.3-0.4c-0.4-0.1-0.8-0.3-1.2-0.5c-0.3-0.2-0.6-0.5-0.8-0.9c-0.2-0.4-0.3-0.8-0.3-1.3c0-0.5,0.1-0.9,0.3-1.3
		c0.2-0.4,0.5-0.7,0.9-0.9c0.4-0.3,0.8-0.4,1.4-0.6c0.5-0.1,1.1-0.2,1.7-0.2c0.7,0,1.2,0.1,1.7,0.2c0.5,0.1,0.9,0.3,1.3,0.6
		c0.4,0.3,0.6,0.6,0.8,0.9c0.2,0.3,0.3,0.7,0.3,1.1c0,0.1,0,0.2,0,0.3c0,0.1,0,0.1,0,0.2h-2v-0.2c0-0.3-0.1-0.5-0.2-0.7
		c-0.1-0.2-0.4-0.4-0.7-0.5c-0.3-0.1-0.7-0.2-1.2-0.2c-0.3,0-0.7,0-0.9,0.1c-0.3,0.1-0.5,0.1-0.7,0.3c-0.2,0.1-0.3,0.2-0.4,0.4
		c-0.1,0.1-0.1,0.3-0.1,0.5c0,0.3,0.1,0.5,0.3,0.7c0.2,0.2,0.5,0.3,0.9,0.4c0.4,0.1,0.7,0.2,1.2,0.4c0.5,0.1,1,0.3,1.5,0.4
		c0.5,0.1,0.9,0.3,1.4,0.5c0.4,0.2,0.8,0.5,1,0.9c0.3,0.4,0.4,0.9,0.4,1.5c0,0.6-0.1,1.1-0.3,1.5c-0.2,0.4-0.5,0.8-1,1
		c-0.4,0.3-0.9,0.5-1.4,0.6S694.9,303.6,694.3,303.6z M705.1,305.2c-1,0-1.8-0.2-2.4-0.6c-0.6-0.4-1.1-0.9-1.4-1.5
		c-0.3-0.7-0.4-1.4-0.4-2.2h2.1c0,0.5,0.1,1,0.2,1.4c0.2,0.4,0.4,0.7,0.7,0.9c0.3,0.2,0.7,0.3,1.2,0.3c0.7,0,1.3-0.2,1.7-0.6
		c0.4-0.4,0.7-1,0.8-1.7c0.1-0.7,0.2-1.6,0.2-2.6c-0.1,0.2-0.3,0.4-0.6,0.7c-0.3,0.2-0.7,0.4-1.1,0.6c-0.4,0.1-0.9,0.2-1.5,0.2
		c-1,0-1.8-0.2-2.4-0.6c-0.6-0.4-1.1-0.9-1.4-1.6c-0.3-0.7-0.5-1.5-0.5-2.3c0-0.9,0.2-1.7,0.6-2.4s0.9-1.2,1.6-1.6
		c0.7-0.4,1.5-0.6,2.3-0.6c0.8,0,1.5,0.1,2.1,0.3c0.6,0.2,1.2,0.6,1.6,1.1c0.4,0.5,0.8,1.2,1,2.1c0.2,0.9,0.3,1.9,0.3,3.2
		c0,1.4-0.1,2.6-0.3,3.6c-0.2,1-0.6,1.7-1,2.3c-0.4,0.6-0.9,1-1.5,1.2C706.6,305.1,705.9,305.2,705.1,305.2z M705.1,298.4
		c0.6,0,1.1-0.1,1.5-0.4c0.4-0.3,0.7-0.6,0.9-1c0.2-0.4,0.3-0.9,0.3-1.5c0-0.5-0.1-1-0.3-1.4c-0.2-0.4-0.5-0.8-0.9-1
		c-0.4-0.3-0.9-0.4-1.5-0.4c-0.6,0-1.1,0.1-1.5,0.4c-0.4,0.3-0.7,0.6-0.8,1s-0.3,0.9-0.3,1.4c0,0.5,0.1,1,0.3,1.4
		c0.2,0.4,0.5,0.7,0.8,1C704,298.3,704.5,298.4,705.1,298.4z M712.8,305v-2.3h2.2v2.3H712.8z M722.3,305.2c-1,0-1.8-0.2-2.4-0.6
		c-0.6-0.4-1.1-0.9-1.4-1.5c-0.3-0.7-0.4-1.4-0.4-2.2h2.1c0,0.5,0.1,1,0.2,1.4c0.2,0.4,0.4,0.7,0.7,0.9c0.3,0.2,0.7,0.3,1.2,0.3
		c0.7,0,1.3-0.2,1.7-0.6c0.4-0.4,0.7-1,0.8-1.7c0.1-0.7,0.2-1.6,0.2-2.6c-0.1,0.2-0.3,0.4-0.6,0.7c-0.3,0.2-0.7,0.4-1.1,0.6
		c-0.4,0.1-0.9,0.2-1.5,0.2c-1,0-1.8-0.2-2.4-0.6c-0.6-0.4-1.1-0.9-1.4-1.6c-0.3-0.7-0.5-1.5-0.5-2.3c0-0.9,0.2-1.7,0.6-2.4
		c0.4-0.7,0.9-1.2,1.6-1.6c0.7-0.4,1.5-0.6,2.3-0.6c0.8,0,1.5,0.1,2.1,0.3c0.6,0.2,1.2,0.6,1.6,1.1c0.4,0.5,0.8,1.2,1,2.1
		c0.2,0.9,0.3,1.9,0.3,3.2c0,1.4-0.1,2.6-0.3,3.6c-0.2,1-0.6,1.7-1,2.3c-0.4,0.6-0.9,1-1.5,1.2C723.8,305.1,723.1,305.2,722.3,305.2
		z M722.3,298.4c0.6,0,1.1-0.1,1.5-0.4c0.4-0.3,0.7-0.6,0.9-1c0.2-0.4,0.3-0.9,0.3-1.5c0-0.5-0.1-1-0.3-1.4c-0.2-0.4-0.5-0.8-0.9-1
		c-0.4-0.3-0.9-0.4-1.5-0.4c-0.6,0-1.1,0.1-1.5,0.4c-0.4,0.3-0.7,0.6-0.8,1c-0.2,0.4-0.3,0.9-0.3,1.4c0,0.5,0.1,1,0.3,1.4
		c0.2,0.4,0.5,0.7,0.8,1C721.3,298.3,721.8,298.4,722.3,298.4z M733.8,305.2c-1,0-1.8-0.2-2.4-0.6c-0.6-0.4-1.1-0.9-1.4-1.5
		c-0.3-0.7-0.4-1.4-0.4-2.2h2.1c0,0.5,0.1,1,0.2,1.4c0.2,0.4,0.4,0.7,0.7,0.9c0.3,0.2,0.7,0.3,1.2,0.3c0.7,0,1.3-0.2,1.7-0.6
		c0.4-0.4,0.7-1,0.8-1.7c0.1-0.7,0.2-1.6,0.2-2.6c-0.1,0.2-0.3,0.4-0.6,0.7c-0.3,0.2-0.7,0.4-1.1,0.6c-0.4,0.1-0.9,0.2-1.5,0.2
		c-1,0-1.8-0.2-2.4-0.6c-0.6-0.4-1.1-0.9-1.4-1.6c-0.3-0.7-0.5-1.5-0.5-2.3c0-0.9,0.2-1.7,0.6-2.4c0.4-0.7,0.9-1.2,1.6-1.6
		c0.7-0.4,1.5-0.6,2.3-0.6c0.8,0,1.5,0.1,2.1,0.3c0.6,0.2,1.2,0.6,1.6,1.1c0.4,0.5,0.8,1.2,1,2.1c0.2,0.9,0.3,1.9,0.3,3.2
		c0,1.4-0.1,2.6-0.3,3.6c-0.2,1-0.6,1.7-1,2.3c-0.4,0.6-0.9,1-1.5,1.2C735.3,305.1,734.6,305.2,733.8,305.2z M733.8,298.4
		c0.6,0,1.1-0.1,1.5-0.4c0.4-0.3,0.7-0.6,0.9-1c0.2-0.4,0.3-0.9,0.3-1.5c0-0.5-0.1-1-0.3-1.4c-0.2-0.4-0.5-0.8-0.9-1
		c-0.4-0.3-0.9-0.4-1.5-0.4c-0.6,0-1.1,0.1-1.5,0.4c-0.4,0.3-0.7,0.6-0.8,1c-0.2,0.4-0.3,0.9-0.3,1.4c0,0.5,0.1,1,0.3,1.4
		c0.2,0.4,0.5,0.7,0.8,1C732.8,298.3,733.2,298.4,733.8,298.4z"/>
	<path class="st29" d="M666.1,243.2c-0.6,0-1.1-0.1-1.6-0.3c-0.5-0.2-0.9-0.5-1.2-0.9c-0.3-0.4-0.6-1-0.8-1.7
		c-0.2-0.7-0.3-1.7-0.3-2.8c0-1.1,0.1-2,0.3-2.8c0.2-0.7,0.4-1.3,0.8-1.7c0.3-0.4,0.7-0.7,1.2-0.9c0.5-0.2,1-0.3,1.6-0.3
		c0.6,0,1.1,0.1,1.6,0.3c0.5,0.2,0.9,0.5,1.2,0.9c0.3,0.4,0.6,1,0.8,1.7c0.2,0.7,0.3,1.6,0.3,2.8c0,1.1-0.1,2-0.3,2.8
		c-0.2,0.7-0.4,1.3-0.8,1.7c-0.3,0.4-0.7,0.7-1.2,0.9C667.2,243.1,666.7,243.2,666.1,243.2z M666.1,242c0.6,0,1.1-0.2,1.4-0.5
		c0.3-0.3,0.6-0.8,0.7-1.4c0.1-0.6,0.2-1.4,0.2-2.3v-0.7c0-0.9-0.1-1.7-0.2-2.3c-0.1-0.6-0.4-1.1-0.7-1.4c-0.3-0.3-0.8-0.5-1.4-0.5
		c-0.6,0-1.1,0.2-1.4,0.5c-0.3,0.3-0.6,0.8-0.7,1.4c-0.1,0.6-0.2,1.4-0.2,2.3v0.7c0,0.9,0.1,1.7,0.2,2.3c0.1,0.6,0.4,1.1,0.7,1.4
		C665,241.9,665.5,242,666.1,242z M671.7,243v-1.2h2.8v-7.6h-2.8v-0.9c0.4,0,0.8-0.1,1.2-0.2c0.4-0.1,0.8-0.2,1.2-0.4
		c0.4-0.2,0.8-0.4,1.1-0.7h0.6v9.8h2.6v1.2H671.7z M680.4,243v-1.7h1.6v1.7H680.4z M684.2,243v-0.5c0-0.4,0.1-0.9,0.3-1.2
		c0.2-0.4,0.4-0.7,0.7-1c0.3-0.3,0.6-0.6,1-0.9c0.4-0.3,0.8-0.6,1.1-0.8c0.5-0.4,1-0.7,1.4-1.1c0.4-0.4,0.8-0.8,1.1-1.2
		c0.3-0.4,0.4-0.9,0.4-1.4c0-0.3-0.1-0.6-0.2-0.9c-0.1-0.3-0.4-0.5-0.7-0.7c-0.3-0.2-0.7-0.2-1.2-0.2c-0.6,0-1,0.1-1.4,0.3
		c-0.3,0.2-0.6,0.4-0.8,0.8c-0.2,0.3-0.2,0.7-0.2,1.1v0.7h-1.4c0-0.1,0-0.1,0-0.2c0-0.1,0-0.3,0-0.4c0-0.8,0.2-1.4,0.5-1.9
		c0.4-0.5,0.8-0.8,1.4-1.1c0.6-0.2,1.2-0.4,1.9-0.4c0.6,0,1.1,0.1,1.6,0.3c0.4,0.2,0.8,0.4,1.1,0.7c0.3,0.3,0.5,0.6,0.6,1
		c0.1,0.4,0.2,0.7,0.2,1.2c0,0.5-0.1,1-0.3,1.4c-0.2,0.4-0.4,0.8-0.7,1.2c-0.3,0.4-0.7,0.7-1.1,1c-0.4,0.3-0.9,0.7-1.4,1
		c-0.3,0.2-0.7,0.5-1,0.7c-0.3,0.2-0.6,0.5-0.8,0.8c-0.2,0.3-0.4,0.5-0.4,0.7h5.8v1.3H684.2z M697.2,243.2c-0.8,0-1.4-0.1-2-0.4
		c-0.6-0.3-1-0.7-1.3-1.2c-0.3-0.5-0.5-1.2-0.5-1.9h1.4c0,0.5,0.1,0.9,0.3,1.3c0.2,0.4,0.5,0.6,0.9,0.8c0.4,0.2,0.8,0.3,1.2,0.3
		c0.5,0,0.9-0.1,1.2-0.3c0.4-0.2,0.6-0.5,0.8-0.9c0.2-0.4,0.3-0.9,0.3-1.5c0-0.5-0.1-1-0.3-1.3c-0.2-0.4-0.4-0.6-0.8-0.8
		c-0.3-0.2-0.7-0.3-1.2-0.3c-0.3,0-0.6,0.1-0.9,0.2c-0.3,0.1-0.5,0.2-0.8,0.4c-0.2,0.2-0.4,0.4-0.6,0.7l-1.3-0.2l0.5-6.1h6.2v1.3h-5
		l-0.3,3.4c0.2-0.2,0.4-0.3,0.6-0.4c0.2-0.1,0.5-0.2,0.8-0.3c0.3-0.1,0.6-0.1,1-0.1c0.6,0,1.2,0.1,1.7,0.4s0.9,0.6,1.2,1.1
		c0.3,0.5,0.4,1.2,0.4,2c0,0.8-0.2,1.5-0.5,2.1c-0.3,0.6-0.7,1-1.3,1.3C698.6,243,697.9,243.2,697.2,243.2z M703.1,243v-1.7h1.6v1.7
		H703.1z M706.9,243v-0.5c0-0.4,0.1-0.9,0.3-1.2c0.2-0.4,0.4-0.7,0.7-1c0.3-0.3,0.6-0.6,1-0.9c0.4-0.3,0.8-0.6,1.1-0.8
		c0.5-0.4,1-0.7,1.4-1.1c0.4-0.4,0.8-0.8,1.1-1.2c0.3-0.4,0.4-0.9,0.4-1.4c0-0.3-0.1-0.6-0.2-0.9c-0.1-0.3-0.4-0.5-0.7-0.7
		c-0.3-0.2-0.7-0.2-1.2-0.2c-0.6,0-1,0.1-1.4,0.3c-0.3,0.2-0.6,0.4-0.8,0.8c-0.1,0.3-0.2,0.7-0.2,1.1v0.7h-1.4c0-0.1,0-0.1,0-0.2
		c0-0.1,0-0.3,0-0.4c0-0.8,0.2-1.4,0.5-1.9c0.4-0.5,0.8-0.8,1.4-1.1c0.6-0.2,1.2-0.4,1.9-0.4c0.6,0,1.1,0.1,1.6,0.3
		c0.4,0.2,0.8,0.4,1.1,0.7c0.3,0.3,0.5,0.6,0.6,1c0.1,0.4,0.2,0.7,0.2,1.2c0,0.5-0.1,1-0.3,1.4c-0.2,0.4-0.4,0.8-0.7,1.2
		c-0.3,0.4-0.7,0.7-1.1,1c-0.4,0.3-0.9,0.7-1.4,1c-0.3,0.2-0.7,0.5-1,0.7c-0.3,0.2-0.6,0.5-0.8,0.8c-0.2,0.3-0.4,0.5-0.4,0.7h5.8
		v1.3H706.9z M716.2,243v-1.2h2.8v-7.6h-2.8v-0.9c0.4,0,0.8-0.1,1.2-0.2c0.4-0.1,0.8-0.2,1.2-0.4c0.4-0.2,0.8-0.4,1.1-0.7h0.6v9.8
		h2.6v1.2H716.2z"/>
	<path class="st30" d="M736.6,243.2c-0.6,0-1.1-0.1-1.6-0.3c-0.5-0.2-0.9-0.5-1.2-0.9c-0.3-0.4-0.6-1-0.8-1.7
		c-0.2-0.7-0.3-1.7-0.3-2.8c0-1.1,0.1-2,0.3-2.8c0.2-0.7,0.4-1.3,0.8-1.7c0.3-0.4,0.7-0.7,1.2-0.9c0.5-0.2,1-0.3,1.6-0.3
		c0.6,0,1.1,0.1,1.6,0.3c0.5,0.2,0.9,0.5,1.2,0.9c0.3,0.4,0.6,1,0.8,1.7c0.2,0.7,0.3,1.6,0.3,2.8c0,1.1-0.1,2-0.3,2.8
		c-0.2,0.7-0.4,1.3-0.8,1.7c-0.3,0.4-0.7,0.7-1.2,0.9C737.7,243.1,737.2,243.2,736.6,243.2z M736.6,242c0.6,0,1.1-0.2,1.4-0.5
		c0.3-0.3,0.6-0.8,0.7-1.4c0.1-0.6,0.2-1.4,0.2-2.3v-0.7c0-0.9-0.1-1.7-0.2-2.3c-0.1-0.6-0.4-1.1-0.7-1.4c-0.3-0.3-0.8-0.5-1.4-0.5
		c-0.6,0-1.1,0.2-1.4,0.5c-0.3,0.3-0.6,0.8-0.7,1.4c-0.1,0.6-0.2,1.4-0.2,2.3v0.7c0,0.9,0.1,1.7,0.2,2.3c0.1,0.6,0.4,1.1,0.7,1.4
		C735.5,241.9,736,242,736.6,242z M743.5,243c0-1,0.1-1.9,0.4-2.9c0.3-0.9,0.6-1.8,1-2.6c0.4-0.8,0.9-1.6,1.4-2.3
		c0.5-0.7,1-1.3,1.4-1.9h-5.9V232h7.7v0.9c-0.4,0.5-0.8,1-1.2,1.5c-0.4,0.6-0.8,1.1-1.2,1.8c-0.4,0.6-0.7,1.3-1,1.9
		c-0.3,0.7-0.6,1.4-0.7,2c-0.2,0.7-0.3,1.4-0.3,2v0.8H743.5z M751.6,236.3v-1.7h1.6v1.7H751.6z M751.6,243v-1.7h1.6v1.7H751.6z
		 M759.4,243.2c-0.9,0-1.6-0.1-2.2-0.4c-0.6-0.3-1-0.6-1.3-1.1c-0.3-0.5-0.4-1.1-0.4-1.7v-0.2h1.4v0.2c0,0.7,0.2,1.2,0.6,1.5
		c0.4,0.3,1,0.5,1.8,0.5s1.3-0.2,1.8-0.5c0.5-0.3,0.7-0.9,0.7-1.6c0-0.5-0.1-0.9-0.4-1.2c-0.2-0.3-0.6-0.5-1-0.6
		c-0.4-0.1-0.8-0.2-1.2-0.2H758v-1.2h1.2c0.4,0,0.8-0.1,1.1-0.2c0.3-0.1,0.6-0.3,0.8-0.6c0.2-0.3,0.3-0.7,0.3-1.2
		c0-0.4-0.1-0.8-0.3-1c-0.2-0.3-0.4-0.5-0.8-0.6c-0.3-0.1-0.7-0.2-1.1-0.2c-0.4,0-0.8,0.1-1.2,0.2c-0.3,0.1-0.6,0.4-0.8,0.6
		c-0.2,0.3-0.3,0.7-0.3,1.1v0.2h-1.4v-0.3c0-0.6,0.2-1.1,0.5-1.6c0.3-0.5,0.8-0.8,1.3-1.1c0.6-0.3,1.2-0.4,1.9-0.4
		c0.7,0,1.3,0.1,1.9,0.3c0.5,0.2,1,0.6,1.3,1c0.3,0.4,0.5,1,0.5,1.6c0,0.5-0.1,0.9-0.3,1.2c-0.2,0.3-0.4,0.6-0.7,0.8
		c-0.3,0.2-0.6,0.4-0.9,0.5v0.1c0.6,0.2,1.1,0.5,1.5,0.9c0.4,0.4,0.6,1,0.6,1.8c0,0.7-0.2,1.2-0.5,1.7c-0.3,0.5-0.8,0.8-1.4,1.1
		C760.8,243.1,760.1,243.2,759.4,243.2z M768.5,243.2c-0.6,0-1.1-0.1-1.6-0.3c-0.5-0.2-0.9-0.5-1.2-0.9c-0.3-0.4-0.6-1-0.8-1.7
		c-0.2-0.7-0.3-1.7-0.3-2.8c0-1.1,0.1-2,0.3-2.8c0.2-0.7,0.4-1.3,0.8-1.7c0.3-0.4,0.7-0.7,1.2-0.9c0.5-0.2,1-0.3,1.6-0.3
		c0.6,0,1.1,0.1,1.6,0.3c0.5,0.2,0.9,0.5,1.2,0.9c0.3,0.4,0.6,1,0.8,1.7c0.2,0.7,0.3,1.6,0.3,2.8c0,1.1-0.1,2-0.3,2.8
		c-0.2,0.7-0.4,1.3-0.8,1.7c-0.3,0.4-0.7,0.7-1.2,0.9C769.6,243.1,769.1,243.2,768.5,243.2z M768.5,242c0.6,0,1.1-0.2,1.4-0.5
		c0.3-0.3,0.6-0.8,0.7-1.4c0.1-0.6,0.2-1.4,0.2-2.3v-0.7c0-0.9-0.1-1.7-0.2-2.3c-0.1-0.6-0.4-1.1-0.7-1.4c-0.3-0.3-0.8-0.5-1.4-0.5
		c-0.6,0-1.1,0.2-1.4,0.5c-0.3,0.3-0.6,0.8-0.7,1.4c-0.1,0.6-0.2,1.4-0.2,2.3v0.7c0,0.9,0.1,1.7,0.2,2.3c0.1,0.6,0.4,1.1,0.7,1.4
		C767.4,241.9,767.9,242,768.5,242z M777.8,243v-11h5.4c0.8,0,1.4,0.1,1.9,0.4c0.5,0.3,0.9,0.7,1.1,1.2c0.3,0.5,0.4,1.1,0.4,1.7
		c0,0.7-0.1,1.3-0.4,1.8c-0.3,0.5-0.7,0.9-1.2,1.2c-0.5,0.3-1.1,0.4-1.8,0.4h-3.9v4.2H777.8z M779.3,237.5h3.8
		c0.6,0,1.1-0.2,1.4-0.6c0.4-0.4,0.5-0.9,0.5-1.5c0-0.4-0.1-0.8-0.2-1.1c-0.2-0.3-0.4-0.5-0.7-0.7c-0.3-0.2-0.7-0.3-1.1-0.3h-3.8
		V237.5z M788.5,243v-11h2.4l2.5,7.1c0.1,0.2,0.1,0.4,0.2,0.6c0.1,0.2,0.1,0.4,0.2,0.6c0.1,0.2,0.1,0.4,0.1,0.5h0.1
		c0-0.2,0.1-0.3,0.1-0.5c0.1-0.2,0.1-0.4,0.2-0.7c0.1-0.2,0.1-0.4,0.2-0.6l2.5-7.1h2.3v11h-1.5v-6.4c0-0.3,0-0.7,0-1.1
		c0-0.4,0-0.8,0-1.1c0-0.3,0-0.6,0-0.7h-0.1c0,0.1-0.1,0.3-0.2,0.6c-0.1,0.2-0.2,0.5-0.2,0.8c-0.1,0.3-0.1,0.5-0.2,0.7l-2.6,7.2
		h-1.3l-2.6-7.2c-0.1-0.2-0.1-0.4-0.2-0.6c-0.1-0.2-0.1-0.5-0.2-0.8c-0.1-0.3-0.1-0.5-0.2-0.7h-0.1c0,0.2,0,0.5,0,0.9
		c0,0.3,0,0.7,0,1c0,0.3,0,0.7,0,0.9v6.4H788.5z"/>
	
		<linearGradient id="SVGID_00000119098319572929343860000002799508202389750937_" gradientUnits="userSpaceOnUse" x1="908.5504" y1="486.6653" x2="927.6424" y2="467.5743" gradientTransform="matrix(0.7071 0.7071 0.7071 -0.7071 -243.4259 -102.3179)">
		<stop  offset="0" style="stop-color:#0E0D12"/>
		<stop  offset="1" style="stop-color:#15151B"/>
	</linearGradient>
	<path style="fill:url(#SVGID_00000119098319572929343860000002799508202389750937_);" d="M744.6,196.4l11.3,11.3
		c0.8,0.8,0.8,2,0,2.8l-11.3,11.3c-0.8,0.8-2,0.8-2.8,0l-11.3-11.3c-0.8-0.8-0.8-2,0-2.8l11.3-11.3
		C742.5,195.6,743.8,195.6,744.6,196.4z"/>
</g>
<g class="st26">
	<path class="st27" d="M434,0h264c4.4,0,8,3.6,8,8v80c0,4.4-3.6,8-8,8H434c-4.4,0-8-3.6-8-8V8C426,3.6,429.6,0,434,0z"/>
	<path class="st28" d="M449.8,69.2c-1.4,0-2.6-0.3-3.7-0.8c-1-0.5-1.8-1.3-2.4-2.4c-0.5-1.1-0.8-2.4-0.8-4c0-1.6,0.3-2.9,0.8-4
		c0.6-1.1,1.4-1.8,2.4-2.4c1-0.5,2.3-0.8,3.7-0.8c1.4,0,2.7,0.3,3.7,0.8c1,0.5,1.8,1.3,2.4,2.4c0.6,1,0.8,2.4,0.8,4
		c0,1.6-0.3,2.9-0.8,4c-0.5,1.1-1.3,1.8-2.4,2.4C452.5,69,451.3,69.2,449.8,69.2z M449.8,67.3c0.7,0,1.4-0.1,1.9-0.3
		c0.6-0.2,1.1-0.5,1.4-0.9c0.4-0.4,0.7-0.9,0.9-1.6c0.2-0.6,0.3-1.4,0.3-2.2v-0.4c0-0.9-0.1-1.6-0.3-2.2c-0.2-0.6-0.5-1.1-0.9-1.6
		c-0.4-0.4-0.9-0.7-1.4-0.9c-0.6-0.2-1.2-0.3-1.9-0.3c-0.7,0-1.4,0.1-1.9,0.3c-0.6,0.2-1,0.5-1.4,0.9c-0.4,0.4-0.7,0.9-0.9,1.6
		c-0.2,0.6-0.3,1.4-0.3,2.2v0.4c0,0.8,0.1,1.6,0.3,2.2c0.2,0.6,0.5,1.1,0.9,1.6c0.4,0.4,0.9,0.7,1.4,0.9
		C448.5,67.2,449.1,67.3,449.8,67.3z M459,72.5v-14h1.7l0.2,1.4h0.1c0.4-0.6,0.8-1,1.4-1.3s1.2-0.4,1.9-0.4c0.9,0,1.6,0.2,2.2,0.6
		c0.6,0.4,1.1,1,1.4,1.8c0.3,0.8,0.5,1.9,0.5,3.2c0,1.3-0.2,2.3-0.5,3.1c-0.3,0.8-0.8,1.4-1.4,1.8c-0.6,0.4-1.3,0.6-2.1,0.6
		c-0.5,0-0.9-0.1-1.3-0.2c-0.4-0.1-0.8-0.3-1.1-0.5c-0.3-0.2-0.6-0.5-0.8-0.9h-0.1v4.7H459z M463.7,67.4c0.6,0,1.1-0.1,1.5-0.4
		c0.4-0.3,0.7-0.6,0.8-1.2c0.2-0.5,0.3-1.2,0.3-2v-0.4c0-0.8-0.1-1.5-0.3-2c-0.2-0.5-0.5-0.9-0.9-1.1c-0.4-0.2-0.9-0.4-1.5-0.4
		c-0.6,0-1.1,0.1-1.5,0.4c-0.4,0.3-0.7,0.7-0.9,1.2c-0.2,0.5-0.3,1.2-0.3,1.9v0.3c0,0.6,0.1,1.2,0.2,1.6s0.3,0.8,0.5,1.1
		c0.2,0.3,0.5,0.5,0.8,0.6S463.3,67.4,463.7,67.4z M473.2,69.2c-0.6,0-1.1-0.1-1.4-0.3c-0.3-0.2-0.6-0.5-0.7-0.9
		c-0.1-0.4-0.2-0.8-0.2-1.2v-6.6h-1.3v-1.7h1.4l0.4-2.9h1.7v2.9h1.9v1.7H473v6.4c0,0.3,0.1,0.5,0.2,0.7c0.1,0.2,0.4,0.2,0.7,0.2h1
		v1.4c-0.1,0.1-0.3,0.1-0.5,0.1c-0.2,0.1-0.4,0.1-0.6,0.1C473.6,69.2,473.4,69.2,473.2,69.2z M480.8,56.7v-2.1h2.1v2.1H480.8z
		 M480.8,69V58.5h2.1V69H480.8z M485.6,69V58.5h1.7l0.2,1.5h0.1c0.3-0.4,0.6-0.7,0.9-1c0.3-0.3,0.7-0.4,1.1-0.6
		c0.4-0.1,0.9-0.2,1.4-0.2c0.7,0,1.3,0.1,1.8,0.4c0.5,0.2,0.9,0.6,1.2,1.1c0.3,0.5,0.4,1.2,0.4,2.1V69h-2.1v-6.9
		c0-0.4-0.1-0.7-0.2-1c-0.1-0.3-0.2-0.5-0.4-0.6c-0.2-0.2-0.4-0.3-0.7-0.3c-0.3-0.1-0.5-0.1-0.8-0.1c-0.5,0-0.9,0.1-1.3,0.4
		c-0.4,0.2-0.7,0.5-0.9,1s-0.4,0.9-0.4,1.5V69H485.6z"/>
	<path class="st29" d="M447.1,35.2c-0.6,0-1.1-0.1-1.6-0.3c-0.5-0.2-0.9-0.5-1.2-0.9c-0.3-0.4-0.6-1-0.8-1.7
		c-0.2-0.7-0.3-1.7-0.3-2.8c0-1.1,0.1-2,0.3-2.8c0.2-0.7,0.4-1.3,0.8-1.7c0.3-0.4,0.7-0.7,1.2-0.9c0.5-0.2,1-0.3,1.6-0.3
		c0.6,0,1.1,0.1,1.6,0.3c0.5,0.2,0.9,0.5,1.2,0.9c0.3,0.4,0.6,1,0.8,1.7c0.2,0.7,0.3,1.6,0.3,2.8c0,1.1-0.1,2-0.3,2.8
		c-0.2,0.7-0.4,1.3-0.8,1.7c-0.3,0.4-0.7,0.7-1.2,0.9C448.2,35.1,447.7,35.2,447.1,35.2z M447.1,34c0.6,0,1.1-0.2,1.4-0.5
		c0.3-0.3,0.6-0.8,0.7-1.4c0.1-0.6,0.2-1.4,0.2-2.3v-0.7c0-0.9-0.1-1.7-0.2-2.3c-0.1-0.6-0.4-1.1-0.7-1.4c-0.3-0.3-0.8-0.5-1.4-0.5
		s-1.1,0.2-1.4,0.5c-0.3,0.3-0.6,0.8-0.7,1.4c-0.1,0.6-0.2,1.4-0.2,2.3v0.7c0,0.9,0.1,1.7,0.2,2.3c0.1,0.6,0.4,1.1,0.7,1.4
		C446,33.9,446.5,34,447.1,34z M452.7,35v-1.2h2.8v-7.6h-2.8v-0.9c0.4,0,0.8-0.1,1.2-0.2c0.4-0.1,0.8-0.2,1.2-0.4
		c0.4-0.2,0.8-0.4,1.1-0.7h0.6v9.8h2.6V35H452.7z M461.4,35v-1.7h1.6V35H461.4z M465.2,35v-0.5c0-0.4,0.1-0.9,0.3-1.2
		c0.2-0.4,0.4-0.7,0.7-1c0.3-0.3,0.6-0.6,1-0.9c0.4-0.3,0.8-0.6,1.1-0.8c0.5-0.4,1-0.7,1.4-1.1c0.4-0.4,0.8-0.8,1.1-1.2
		c0.3-0.4,0.4-0.9,0.4-1.4c0-0.3-0.1-0.6-0.2-0.9c-0.1-0.3-0.4-0.5-0.7-0.7c-0.3-0.2-0.7-0.2-1.2-0.2c-0.6,0-1,0.1-1.4,0.3
		c-0.3,0.2-0.6,0.4-0.8,0.8c-0.1,0.3-0.2,0.7-0.2,1.1v0.7h-1.4c0-0.1,0-0.1,0-0.2c0-0.1,0-0.3,0-0.4c0-0.8,0.2-1.4,0.5-1.9
		c0.4-0.5,0.8-0.8,1.4-1.1c0.6-0.2,1.2-0.4,1.9-0.4c0.6,0,1.1,0.1,1.6,0.3c0.4,0.2,0.8,0.4,1.1,0.7s0.5,0.6,0.6,1
		c0.1,0.4,0.2,0.7,0.2,1.2c0,0.5-0.1,1-0.3,1.4c-0.2,0.4-0.4,0.8-0.7,1.2c-0.3,0.4-0.7,0.7-1.1,1c-0.4,0.3-0.9,0.7-1.4,1
		c-0.3,0.2-0.7,0.5-1,0.7c-0.3,0.2-0.6,0.5-0.8,0.8c-0.2,0.3-0.4,0.5-0.4,0.7h5.8V35H465.2z M478.2,35.2c-0.8,0-1.4-0.1-2-0.4
		c-0.6-0.3-1-0.7-1.3-1.2c-0.3-0.5-0.5-1.2-0.5-1.9h1.4c0,0.5,0.1,0.9,0.3,1.3c0.2,0.4,0.5,0.6,0.9,0.8c0.4,0.2,0.8,0.3,1.2,0.3
		c0.5,0,0.9-0.1,1.2-0.3c0.4-0.2,0.6-0.5,0.8-0.9c0.2-0.4,0.3-0.9,0.3-1.5c0-0.5-0.1-1-0.3-1.3c-0.2-0.4-0.4-0.6-0.8-0.8
		c-0.3-0.2-0.7-0.3-1.2-0.3c-0.3,0-0.6,0.1-0.9,0.2c-0.3,0.1-0.6,0.2-0.8,0.4c-0.2,0.2-0.4,0.4-0.6,0.7l-1.3-0.2l0.5-6.1h6.2v1.3h-5
		l-0.3,3.4c0.2-0.2,0.4-0.3,0.6-0.4c0.2-0.1,0.5-0.2,0.8-0.3c0.3-0.1,0.6-0.1,1-0.1c0.6,0,1.2,0.1,1.7,0.4c0.5,0.2,0.9,0.6,1.2,1.1
		c0.3,0.5,0.4,1.2,0.4,2c0,0.8-0.2,1.5-0.5,2.1c-0.3,0.6-0.7,1-1.3,1.3C479.6,35,478.9,35.2,478.2,35.2z M484.1,35v-1.7h1.6V35
		H484.1z M487.9,35v-0.5c0-0.4,0.1-0.9,0.3-1.2c0.2-0.4,0.4-0.7,0.7-1c0.3-0.3,0.6-0.6,1-0.9c0.4-0.3,0.8-0.6,1.1-0.8
		c0.5-0.4,1-0.7,1.4-1.1c0.4-0.4,0.8-0.8,1.1-1.2c0.3-0.4,0.4-0.9,0.4-1.4c0-0.3-0.1-0.6-0.2-0.9c-0.2-0.3-0.4-0.5-0.7-0.7
		c-0.3-0.2-0.7-0.2-1.2-0.2c-0.6,0-1,0.1-1.4,0.3c-0.3,0.2-0.6,0.4-0.8,0.8c-0.1,0.3-0.2,0.7-0.2,1.1v0.7h-1.4c0-0.1,0-0.1,0-0.2
		c0-0.1,0-0.3,0-0.4c0-0.8,0.2-1.4,0.5-1.9c0.4-0.5,0.8-0.8,1.4-1.1c0.6-0.2,1.2-0.4,1.9-0.4c0.6,0,1.1,0.1,1.6,0.3
		c0.4,0.2,0.8,0.4,1.1,0.7s0.5,0.6,0.6,1c0.1,0.4,0.2,0.7,0.2,1.2c0,0.5-0.1,1-0.3,1.4c-0.2,0.4-0.4,0.8-0.7,1.2
		c-0.3,0.4-0.7,0.7-1.1,1c-0.4,0.3-0.9,0.7-1.4,1c-0.3,0.2-0.7,0.5-1,0.7c-0.3,0.2-0.6,0.5-0.8,0.8c-0.2,0.3-0.4,0.5-0.4,0.7h5.8V35
		H487.9z M497.2,35v-1.2h2.8v-7.6h-2.8v-0.9c0.4,0,0.8-0.1,1.2-0.2c0.4-0.1,0.8-0.2,1.2-0.4c0.4-0.2,0.8-0.4,1.1-0.7h0.6v9.8h2.6V35
		H497.2z"/>
	
		<linearGradient id="SVGID_00000057130126130264352070000010904434494249889699_" gradientUnits="userSpaceOnUse" x1="629.5504" y1="600.6656" x2="648.6423" y2="581.5742" gradientTransform="matrix(0.7071 0.7071 0.7071 -0.7071 -405.7532 61.575)">
		<stop  offset="0" style="stop-color:#0E0D12"/>
		<stop  offset="1" style="stop-color:#15151B"/>
	</linearGradient>
	<path style="fill:url(#SVGID_00000057130126130264352070000010904434494249889699_);" d="M465.6,82.4l11.3,11.3
		c0.8,0.8,0.8,2,0,2.8l-11.3,11.3c-0.8,0.8-2,0.8-2.8,0l-11.3-11.3c-0.8-0.8-0.8-2,0-2.8l11.3-11.3
		C463.5,81.6,464.8,81.6,465.6,82.4z"/>
	<path class="st30" d="M517.6,35.2c-0.6,0-1.1-0.1-1.6-0.3c-0.5-0.2-0.9-0.5-1.2-0.9c-0.3-0.4-0.6-1-0.8-1.7
		c-0.2-0.7-0.3-1.7-0.3-2.8c0-1.1,0.1-2,0.3-2.8c0.2-0.7,0.4-1.3,0.8-1.7c0.3-0.4,0.7-0.7,1.2-0.9c0.5-0.2,1-0.3,1.6-0.3
		c0.6,0,1.1,0.1,1.6,0.3c0.5,0.2,0.9,0.5,1.2,0.9c0.3,0.4,0.6,1,0.8,1.7c0.2,0.7,0.3,1.6,0.3,2.8c0,1.1-0.1,2-0.3,2.8
		c-0.2,0.7-0.4,1.3-0.8,1.7c-0.3,0.4-0.7,0.7-1.2,0.9C518.7,35.1,518.2,35.2,517.6,35.2z M517.6,34c0.6,0,1.1-0.2,1.4-0.5
		c0.3-0.3,0.6-0.8,0.7-1.4c0.1-0.6,0.2-1.4,0.2-2.3v-0.7c0-0.9-0.1-1.7-0.2-2.3c-0.1-0.6-0.4-1.1-0.7-1.4c-0.3-0.3-0.8-0.5-1.4-0.5
		c-0.6,0-1.1,0.2-1.4,0.5c-0.3,0.3-0.6,0.8-0.7,1.4c-0.1,0.6-0.2,1.4-0.2,2.3v0.7c0,0.9,0.1,1.7,0.2,2.3c0.1,0.6,0.4,1.1,0.7,1.4
		C516.5,33.9,517,34,517.6,34z M524.5,35c0-1,0.1-1.9,0.4-2.9c0.3-0.9,0.6-1.8,1-2.6c0.4-0.8,0.9-1.6,1.4-2.3c0.5-0.7,1-1.3,1.4-1.9
		h-5.9V24h7.7v0.9c-0.4,0.5-0.8,1-1.2,1.5c-0.4,0.6-0.8,1.1-1.2,1.8c-0.4,0.6-0.7,1.3-1,1.9c-0.3,0.7-0.6,1.4-0.7,2
		c-0.2,0.7-0.3,1.4-0.3,2V35H524.5z M532.6,28.3v-1.7h1.6v1.7H532.6z M532.6,35v-1.7h1.6V35H532.6z M536.5,35v-0.5
		c0-0.4,0.1-0.9,0.3-1.2c0.2-0.4,0.4-0.7,0.7-1c0.3-0.3,0.6-0.6,1-0.9s0.8-0.6,1.1-0.8c0.5-0.4,1-0.7,1.4-1.1
		c0.4-0.4,0.8-0.8,1.1-1.2c0.3-0.4,0.4-0.9,0.4-1.4c0-0.3-0.1-0.6-0.2-0.9c-0.1-0.3-0.4-0.5-0.7-0.7s-0.7-0.2-1.2-0.2
		c-0.6,0-1,0.1-1.4,0.3s-0.6,0.4-0.8,0.8c-0.1,0.3-0.2,0.7-0.2,1.1v0.7h-1.4c0-0.1,0-0.1,0-0.2c0-0.1,0-0.3,0-0.4
		c0-0.8,0.2-1.4,0.5-1.9c0.4-0.5,0.8-0.8,1.4-1.1c0.6-0.2,1.2-0.4,1.9-0.4c0.6,0,1.1,0.1,1.6,0.3c0.4,0.2,0.8,0.4,1.1,0.7
		c0.3,0.3,0.5,0.6,0.6,1c0.1,0.4,0.2,0.7,0.2,1.2c0,0.5-0.1,1-0.3,1.4c-0.2,0.4-0.4,0.8-0.7,1.2c-0.3,0.4-0.7,0.7-1.1,1
		c-0.4,0.3-0.9,0.7-1.4,1c-0.3,0.2-0.7,0.5-1,0.7c-0.3,0.2-0.6,0.5-0.8,0.8c-0.2,0.3-0.4,0.5-0.4,0.7h5.8V35H536.5z M549.5,35.2
		c-0.8,0-1.4-0.1-2-0.4c-0.6-0.3-1-0.7-1.3-1.2c-0.3-0.5-0.5-1.2-0.5-1.9h1.4c0,0.5,0.1,0.9,0.3,1.3s0.5,0.6,0.9,0.8
		c0.4,0.2,0.8,0.3,1.2,0.3c0.5,0,0.9-0.1,1.2-0.3c0.4-0.2,0.6-0.5,0.8-0.9c0.2-0.4,0.3-0.9,0.3-1.5c0-0.5-0.1-1-0.3-1.3
		c-0.2-0.4-0.4-0.6-0.8-0.8c-0.3-0.2-0.7-0.3-1.2-0.3c-0.3,0-0.6,0.1-0.9,0.2c-0.3,0.1-0.5,0.2-0.8,0.4c-0.2,0.2-0.4,0.4-0.6,0.7
		l-1.3-0.2l0.5-6.1h6.2v1.3h-5l-0.3,3.4c0.2-0.2,0.4-0.3,0.6-0.4c0.2-0.1,0.5-0.2,0.8-0.3c0.3-0.1,0.6-0.1,1-0.1
		c0.6,0,1.2,0.1,1.7,0.4c0.5,0.2,0.9,0.6,1.2,1.1c0.3,0.5,0.4,1.2,0.4,2c0,0.8-0.2,1.5-0.5,2.1c-0.3,0.6-0.7,1-1.3,1.3
		C550.9,35,550.3,35.2,549.5,35.2z M558.7,35V24h5.4c0.8,0,1.4,0.1,1.9,0.4c0.5,0.3,0.9,0.7,1.1,1.2c0.3,0.5,0.4,1.1,0.4,1.7
		c0,0.7-0.1,1.3-0.4,1.8c-0.3,0.5-0.7,0.9-1.2,1.2c-0.5,0.3-1.1,0.4-1.8,0.4h-3.9V35H558.7z M560.2,29.5h3.8c0.6,0,1.1-0.2,1.4-0.6
		c0.4-0.4,0.5-0.9,0.5-1.5c0-0.4-0.1-0.8-0.2-1.1c-0.2-0.3-0.4-0.5-0.7-0.7c-0.3-0.2-0.7-0.3-1.1-0.3h-3.8V29.5z M569.3,35V24h2.4
		l2.5,7.1c0.1,0.2,0.1,0.4,0.2,0.6c0.1,0.2,0.1,0.4,0.2,0.6c0.1,0.2,0.1,0.4,0.1,0.5h0.1c0-0.2,0.1-0.3,0.1-0.5
		c0.1-0.2,0.1-0.4,0.2-0.7c0.1-0.2,0.1-0.4,0.2-0.6l2.5-7.1h2.3v11h-1.5v-6.4c0-0.3,0-0.7,0-1.1c0-0.4,0-0.8,0-1.1
		c0-0.3,0-0.6,0-0.7h-0.1c0,0.1-0.1,0.3-0.2,0.6c-0.1,0.2-0.2,0.5-0.2,0.8c-0.1,0.3-0.1,0.5-0.2,0.7l-2.6,7.2H574l-2.6-7.2
		c-0.1-0.2-0.1-0.4-0.2-0.6c-0.1-0.2-0.1-0.5-0.2-0.8c-0.1-0.3-0.1-0.5-0.2-0.7h-0.1c0,0.2,0,0.5,0,0.9c0,0.3,0,0.7,0,1
		c0,0.3,0,0.7,0,0.9V35H569.3z"/>
</g>
</svg>
